<svg width="64" height="64" viewBox="0 0 64 64" fill="none" xmlns="http://www.w3.org/2000/svg">
<path d="M59.03 31.2938H57.3452C56.6491 27.9905 53.3149 25.493 49.1372 25.2313C47.9942 22.1806 44.524 20.0466 40.4949 20.0466C39.6004 20.0547 38.7102 20.1698 37.8431 20.3895C36.013 18.955 33.7479 18.1888 31.4228 18.2178C29.9368 18.1793 28.462 18.4848 27.1136 19.1103C25.7651 19.7359 24.5795 20.6646 23.6492 21.824C19.0942 21.7314 15.1829 24.5078 14.5382 28.0922C12.0477 28.2655 9.72647 29.4158 8.08018 31.2927H4.97004C4.66689 31.2927 4.37616 31.4131 4.16181 31.6275C3.94745 31.8418 3.82703 32.1325 3.82703 32.4357V36.394C3.83273 40.9275 5.18487 45.3572 7.71192 49.1211C10.239 52.885 13.827 55.8135 18.021 57.5351V59.6486C18.0225 60.8024 18.4816 61.9085 19.2975 62.7242C20.1135 63.54 21.2197 63.9988 22.3736 64H41.6265C42.7803 63.9988 43.8865 63.54 44.7025 62.7242C45.5184 61.9085 45.9775 60.8024 45.9791 59.6486V57.534C50.1728 55.8124 53.7607 52.8841 56.2878 49.1204C58.8148 45.3567 60.1671 40.9273 60.173 36.394V32.4368C60.173 32.1337 60.0526 31.843 59.8382 31.6286C59.6239 31.4143 59.3331 31.2938 59.03 31.2938ZM15.5418 30.3223C15.694 30.3273 15.8458 30.3016 15.9879 30.2467C16.13 30.1918 16.2596 30.1087 16.3689 30.0025C16.4781 29.8964 16.5649 29.7692 16.6239 29.6288C16.6829 29.4883 16.7129 29.3373 16.7122 29.185C16.6448 26.1606 20.4179 23.7808 24.1887 24.1271C24.3943 24.1323 24.5976 24.0829 24.7779 23.9839C24.9582 23.8849 25.1091 23.7399 25.2151 23.5636C25.9049 22.5684 26.8367 21.7652 27.9228 21.2297C29.0088 20.6942 30.2133 20.4439 31.4228 20.5026C33.3815 20.4572 35.2848 21.1556 36.7492 22.4572C36.9045 22.5833 37.0855 22.6738 37.2796 22.7224C38.3437 22.7681 39.3747 22.2286 40.4949 22.3315C43.9639 22.3395 46.7094 24.2609 47.2775 26.8578C47.3752 27.0511 47.5255 27.2128 47.7112 27.3242C47.8969 27.4357 48.1103 27.4923 48.3268 27.4876C51.4621 27.4533 54.211 29.0924 54.9769 31.2938H11.6224C12.8285 30.65 14.1746 30.3162 15.5418 30.3223ZM43.693 59.6486C43.6921 60.1963 43.4741 60.7213 43.0867 61.1084C42.6993 61.4956 42.1742 61.7134 41.6265 61.714H22.3736C21.8258 61.7134 21.3007 61.4956 20.9133 61.1084C20.5259 60.7213 20.3079 60.1963 20.307 59.6486V58.3284C22.3781 58.9367 24.5252 59.2473 26.6839 59.2508H37.3162C39.4748 59.2473 41.6219 58.9367 43.693 58.3284V59.6486ZM57.8881 36.394C57.8821 41.8483 55.7126 47.0775 51.8556 50.9342C47.9987 54.791 42.7694 56.9602 37.315 56.9659H26.685C14.0353 56.9625 4.96318 45.9473 6.11419 33.5799C6.14391 33.5833 8.59796 33.5707 8.62425 33.5844C8.63911 33.5696 56.2993 33.5844 56.3233 33.5799C56.3469 33.5863 56.3718 33.5863 56.3953 33.5799H57.8893L57.8881 36.394ZM22.545 13.0696C22.4519 13.1875 22.383 13.3225 22.3421 13.4669C22.3012 13.6114 22.2892 13.7625 22.3067 13.9117C22.3242 14.0608 22.3709 14.205 22.4442 14.3361C22.5174 14.4671 22.6158 14.5825 22.7336 14.6756C22.8514 14.7686 22.9864 14.8376 23.1309 14.8785C23.2754 14.9193 23.4265 14.9314 23.5756 14.9139C23.8768 14.8785 24.1516 14.7249 24.3395 14.487C25.2008 13.4006 25.6474 12.0433 25.5995 10.6577C25.5515 9.27222 25.0121 7.94898 24.0778 6.92479C23.4527 6.23999 23.1204 5.33777 23.1521 4.41113C23.1837 3.48448 23.5767 2.607 24.2469 1.9664C24.4652 1.75587 24.5909 1.46725 24.5964 1.16404C24.6018 0.860833 24.4866 0.567873 24.2761 0.349608C24.0656 0.131343 23.7769 0.00565208 23.4737 0.000185993C23.1705 -0.0052801 22.8776 0.109927 22.6593 0.320462C21.5589 1.37398 20.9148 2.81648 20.8648 4.33906C20.8148 5.86164 21.3629 7.34328 22.3918 8.46671C22.9595 9.09096 23.2866 9.89675 23.3146 10.74C23.3427 11.5833 23.0699 12.409 22.545 13.0696ZM31.3256 13.0696C31.2326 13.1875 31.1636 13.3225 31.1227 13.4669C31.0818 13.6114 31.0698 13.7625 31.0873 13.9117C31.1048 14.0608 31.1516 14.205 31.2248 14.3361C31.298 14.4671 31.3964 14.5825 31.5142 14.6756C31.6321 14.7686 31.7671 14.8376 31.9115 14.8785C32.056 14.9193 32.2071 14.9314 32.3563 14.9139C32.6574 14.8785 32.9322 14.7249 33.1202 14.487C33.9818 13.4009 34.4288 12.0435 34.381 10.6579C34.3333 9.27236 33.7939 7.94901 32.8596 6.92479C32.2343 6.24014 31.9019 5.338 31.9333 4.41136C31.9647 3.48472 32.3574 2.60716 33.0276 1.9664C33.2369 1.75418 33.355 1.4686 33.3568 1.17053C33.3585 0.87247 33.2438 0.585507 33.037 0.370827C32.8302 0.156146 32.5478 0.030732 32.2499 0.0213234C31.9519 0.0119148 31.6621 0.119256 31.4422 0.320462C30.3412 1.37353 29.6965 2.8159 29.6461 4.33858C29.5956 5.86125 30.1436 7.34312 31.1725 8.46671C31.7403 9.09082 32.0676 9.89654 32.0958 10.7398C32.1241 11.5831 31.8504 12.4089 31.3256 13.0696ZM40.1085 13.0696C39.9251 13.3078 39.8429 13.6087 39.8798 13.9071C39.9167 14.2055 40.0696 14.4773 40.3055 14.6637C40.5413 14.8501 40.8412 14.9361 41.14 14.903C41.4388 14.8699 41.7125 14.7205 41.9019 14.487C42.7634 13.4008 43.2102 12.0435 43.1624 10.6579C43.1147 9.27243 42.5755 7.94912 41.6413 6.92479C41.0161 6.24014 40.6836 5.338 40.715 4.41136C40.7464 3.48472 41.1392 2.60716 41.8093 1.9664C42.0276 1.75602 42.1534 1.46754 42.1589 1.16444C42.1645 0.861345 42.0494 0.568445 41.8391 0.35018C41.6287 0.131915 41.3402 0.00616368 41.0371 0.000590406C40.734 -0.00498287 40.4411 0.110078 40.2228 0.320462C39.122 1.37368 38.4775 2.81614 38.4273 4.33881C38.3771 5.86149 38.9252 7.34327 39.9542 8.46671C40.522 9.09082 40.8493 9.89654 40.8776 10.7398C40.9059 11.5831 40.6333 12.4089 40.1085 13.0696Z" fill="#51AAB1"/>
</svg>
