<?xml version="1.0" encoding="UTF-8"?>
<svg id="Layer_1" xmlns="http://www.w3.org/2000/svg"
    viewBox="0 0 2229.34 1243.82">
    <defs>
        <style>
            .cls-1 {
                fill: #1d214e;
                stroke-width: 0px;
            }

            .cls-2 {
                fill: #b6742a;
                stroke: #fff;
                stroke-miterlimit: 10;
                stroke-width: 2px;
            }
        </style>
    </defs>
    <path class="cls-1"
        d="M1457.63,813.01c-28.72,0-55.38-13.73-79.99-41.18-18.62-20.83-31.4-42.76-38.34-65.79-9.15-29.98-17.99-87.09-26.51-171.35-9.47-94.03-20.35-181.92-32.66-263.65-3.47-23.98-11.52-56.16-24.14-96.56-11.36-37.23-17.04-56.8-17.04-58.69,4.42-14.83,9.47-33.92,15.15-57.27.95-1.58,2.21-2.37,3.79-2.37,7.89,0,18.93,23.83,33.13,71.47,13.25,44.49,23.19,87.26,29.82,128.27,11.36,72.59,20.35,146.9,26.98,222.94,3.16,41.34,6.47,82.68,9.94,124.01,6,47.97,20.83,85.37,44.49,112.18,18.62,21.14,37.08,31.71,55.38,31.71v66.27Z" />
    <path class="cls-1"
        d="M402.19,147.5c-22.74-10.73-38.38-19.59-46.9-26.52-7.85,28.11-13.54,47.52-16.99,58.2,0,6.03,4.7,11.56,14.18,16.59,18.28,9.48,36.75,18.91,55.37,28.39,12.93-16.71,19.41-35.34,19.41-55.83,0-6.32-8.35-13.26-25.06-20.83Z" />
    <path class="cls-1"
        d="M865.56,1071.03c-19.37-13.76-30.32-20.74-32.83-20.97-5.98-.53-11.91,5.6-17.78,18.39-4.75,10.67-7.44,19.61-8.08,26.84-.7,7.85,5.52,16.33,18.65,25.42,19.7,13.77,33.7,25.62,42,35.56,18.67-31.94,28.24-50.57,28.71-55.92.45-5.03-9.78-14.8-30.67-29.32ZM857.74,1170.13c-17.72-11.07-35.27-22.12-52.66-33.17-13.97,14.61-21.89,32.59-23.79,53.97-.56,6.28,6.99,14.08,22.64,23.39,22,12.72,36.8,22.74,44.39,30.06,10.3-26.96,17.52-45.81,21.64-56.53.53-5.98-3.54-11.89-12.21-17.72ZM737.86,1058.78c-6.56,6.08-13,16.27-19.33,30.6-5.18,11.9-8.01,20.68-8.51,26.33-.52,5.98,18.86,19.73,58.12,41.26,2.84.24,8.45-7.81,16.86-24.16,7.68-15.17,11.6-23.68,11.77-25.57.38-4.41-19.24-20.56-58.92-48.47Z" />
    <path class="cls-1"
        d="M777.47,581.26h.01c27.28-.68,55.71-9.03,85.28-25.03,27.77-15.14,40.39-25.72,37.87-31.72-4.42-11.03-21.77-33.91-52.06-68.62-28.73-33.45-48.61-66.58-59.64-99.4-6.95,0-5.68.66-4.73-2.82.94-11.68-.77-28.57,1.77-48.77,1.23-6.39,2.73-10.42,4.93-11.3,18.99,15.01,54.16,44.89,73.25,61.21-.97,1.75-3.32,2.62-7.07,2.62-9.14,0-17.03-.63-23.67-1.89,2.85,8.22,18.15,28.4,45.92,60.59,25.56,29.04,39.76,54.9,42.59,77.62,4.42,33.14-6.47,65.02-32.66,95.62-10.09,11.6-25.09,23.18-45,34.78-.09.05-.2.11-.31.17-1.13.66-2.28,1.32-3.45,1.97-1.91,1.06-3.79,2.07-5.65,3.05-.05.03-.09.05-.15.08-35.28,16.94-106.96,19.2-129.54,19.48-5.53-18.94-8.31-40.45-8.31-64.53,0-.7,0-1.41.03-2.11l57.6.62" />
    <path class="cls-1"
        d="M993.05,34.86c-1.91-.95-3.95-1.75-6.15-2.36-18.93-9.49-33.14-16.09-42.62-19.88l-8.03-5.24c-2.52-.3-4.28,2.54-5.24,8.52-5.03,20.2-9.26,35.67-12.77,46.39.63,5.37,1.5,9.06,2.63,11.14,1.07,2.04,8.89,6.86,23.4,14.43,15.8,8.19,26.53,12.3,32.22,12.3,4.7,0,8.82-8.05,12.31-24.15,1.54-10.39,3.29-20.82,5.19-31.22,1.25-5.69.95-9.02-.95-9.93Z" />
    <path class="cls-1"
        d="M1268.44,521.15c0,25.89-7.28,52.88-21.79,80.94-27.93,38.12-66.1,74.29-114.53,108.5-17.71,12.55-36.79,24.82-57.29,36.83-9.36,5.49-18.66,10.69-27.89,15.54-21.03,11.22-41.65,20.83-61.9,28.9-12.07,4.78-23.99,9.06-35.76,12.75-30.26,9.48-59.53,15.34-87.88,17.5-8.44.67-16.83,1.01-25.1,1.01-3.62,0-7.15-.09-10.64-.3-34.51-1.62-63.82-11.44-87.88-29.44-14.18-10.56-26.53-23.91-37.09-40.16-.2-.36-.46-.74-.71-1.11-1.61-2.5-3.15-5.03-4.64-7.65-3.58-6.11-6.82-12.51-9.77-19.21-10.34-23.1-17.18-49.43-20.54-78.96-1.64-14.31-2.46-29.37-2.46-45.18,0-10.22.36-20.34,1.11-30.38,1.41-19.41,4.2-38.46,8.36-57.17,1.92-8.52,4.12-15.3,6.66-20.32,3.79-7.91,6.78-9.2,8.98-3.83,2.2,5.4,1.75,15.46-1.42,30.3-3.97,17.97-6.27,35.72-6.9,53.25-.13,3.41-.2,6.81-.2,10.2,0,24.16,2.79,45.73,8.36,64.72,7.88,26.9,21.37,48.61,40.45,65.16,3.11,2.7,6.36,5.28,9.81,7.69,5.73,4.11,11.92,7.81,18.54,11.05,5.73,2.91,11.8,5.49,18.16,7.73,12.56,4.5,26.36,7.83,41.41,9.99,14.22,2.08,29.56,3.11,45.98,3.11,3.17,0,6.4-.08,9.69-.26,17.79-.91,37.29-4.32,58.45-10.23,12.73-3.53,26.07-7.97,40-13.3,33.21-12.71,69.92-30.51,110.07-53.37,84.85-48.27,138.99-91.05,162.35-128.25.63-.97.95-2.08.95-3.33,0-5.37-6.31-19.71-18.95-43.08-14.51-28.1-23.99-48.43-28.39-61.06-6.32-16.09-14.05-38.04-23.2-65.82-4.12-3.45-6.16-5.36-6.16-5.65,3.17-6.94,7.91-27.48,14.23-61.53.62-2.2,1.7-3.32,3.28-3.32.34,0,6.03,6.15,17.05,18.46,28.73,32.18,43.08,49.22,43.08,51.13,0,1.58-1.09,2.38-3.29,2.38-.95,0-3.33-.34-7.11-.97-3.49.3-9.3-.32-17.49-1.91.28,1.29,8.51,18.79,24.61,52.55,15.13,32.18,23.83,56.62,26.03,73.37.95,7.89,1.41,15.46,1.41,22.7Z" />
    <path class="cls-1"
        d="M1890.9,748.16c-17.71-.68-35.55-11.24-53.55-31.67-23.67-26.82-38.5-64.21-44.5-112.18-3.46-41.34-6.78-82.68-9.93-124.02-6.63-76.03-15.62-150.36-26.98-222.94-6.63-41.01-16.56-83.78-29.81-128.28-14.2-47.64-25.25-71.47-33.14-71.47-1.57,0-2.83.79-3.79,2.36-5.68,23.36-10.73,42.45-15.14,57.28,0,1.89,5.68,21.46,17.03,58.69,12.63,40.41,20.67,72.6,24.15,96.57,12.3,81.72,23.18,169.61,32.66,263.64,8.51,84.26,17.36,141.38,26.5,171.35,6.94,23.03,19.73,44.97,38.34,65.79,23.13,25.79,48.04,39.47,74.8,41.02.83.05,1.68.09,2.52.12.13.01.27,0,.39,0,.77.03,1.53.04,2.3.04v-66.27c-.62,0-1.22-.01-1.84-.04Z" />
    <path class="cls-1"
        d="M1947.77,249.9c-2.95-.29-5.3-.88-7.66-1.18-15.9,21.79-45.36,35.93-73.34,35.93-2.65,0-5.01,0-7.66-.29l-.59-1.47c4.71-12.08,6.48-22.09,6.48-29.16,0-7.66-2.06-11.78-5.01-11.78-4.12,0-16.79,4.42-29.75,10.9l-.88-.59,3.83-21.79c9.13-5.3,23.56-11.78,28.86-11.78,11.49,0,15.02,12.96,15.02,26.8,0,6.48-.59,12.96-1.77,18.55,12.37.59,35.64-7.07,50.07-18.55-30.63-7.07-37.99-17.38-37.99-30.92,0-18.26,18.55-38.88,38.88-38.88,18.85,0,24.45,21.5,24.45,38.88,0,5.89-.88,11.49-2.36,16.79,3.24.59,7.07.88,10.9,1.18l-11.49,17.38ZM1937.17,228.99c.59-2.06,1.18-4.12,1.18-6.48,0-15.9-9.72-28.86-20.62-28.86-8.84,0-16.49,5.89-16.49,10.9s4.42,17.38,35.93,24.45Z" />
    <path class="cls-1"
        d="M954.88,298.34c-13.63,0-34.95-14.87-34.95-40.4,0-29.25,26.77-45.36,50.81-52.05l3.97,11.15c-18.59,7.44-29.25,17.35-29.25,30.98s10.16,21.81,24.04,25.03c1.74,0,4.46,3.22,4.46,9.67,0,9.42-9.17,15.62-18.59,15.62h-.5Z" />
    <path class="cls-1"
        d="M724.52,127.38c-58.94,23.48-118.84,44.08-176.82,62.77l-.96-.96,7.19-33.06c67.08-22.52,137.04-46,188.8-66.13l.96,1.44-19.17,35.94Z" />
    <path class="cls-1"
        d="M1542.37,111.58c0-28.83,21.88-39.89,34.13-39.89,13.42,0,35.88,9.52,35.88,40.66,0,24.45-25.09,33.46-36.47,33.46-22.17,0-33.55-16.47-33.55-34.23ZM1572.42,91.77c-7.58,0-19.84,5.66-19.84,16.21,0,7.72,7,17.5,24.21,17.5,15.17,0,26.26-10.04,26.26-13.13,0-2.57-10.21-20.59-30.63-20.59Z" />
    <path class="cls-1"
        d="M204.86,468.16c0-28.83,19.3-39.89,30.11-39.89,11.84,0,31.66,9.52,31.66,40.66,0,24.45-22.13,33.46-32.17,33.46-19.56,0-29.6-16.47-29.6-34.23ZM231.37,448.34c-6.69,0-17.5,5.66-17.5,16.21,0,7.72,6.18,17.5,21.36,17.5,13.38,0,23.16-10.04,23.16-13.13,0-2.57-9.01-20.59-27.02-20.59Z" />
    <path class="cls-1"
        d="M1479.84,797.02c-1.09-1.52-2.26-2.95-3.48-4.28v19.38c3.75,0,7.42-.19,11.05-.58-2.01-5.45-4.54-10.3-7.57-14.52Z" />
    <path class="cls-1"
        d="M1748.04,706.84c-.3-30.22-5.02-55.55-14.18-76-11.05-24.93-26.83-37.4-47.35-37.4-25.24,0-48.59,20.36-70.04,61.06-1.26-2.2-2.68-3.32-4.27-3.32-3.46,0-13.56,12.15-30.28,36.45-17.68,25.88-32.51,41.34-44.5,46.39-19.25,7.89-39.6,11.84-61.06,11.84v46.88c1.22,1.33,2.39,2.77,3.48,4.28,3.03,4.23,5.56,9.07,7.57,14.52,26.63-2.78,50.08-15.84,70.37-39.18,6.31-6.93,18.62-25.87,36.93-56.8,3.18,4.21,6.82,8.32,10.94,12.35l-8.34,69.09,25.87-54.47c9.14,6.58,19.69,12.9,31.64,18.94,11.41,5.56,21.48,9.8,30.18,12.71,9.57,3.21,17.5,4.81,23.79,4.81,5.02,0,9.79-1.7,14.27-5.11,5.06-3.84,9.77-9.88,14.12-18.08,5.26-10.52,8.62-21.46,10.05-32.82.56-4.3.83-8.66.83-13.09,0-1.02,0-2.04-.01-3.05ZM1663.34,690.47c-1.89-1.26-9.95-8.35-24.15-21.3,7.57-6.93,17.99-10.42,31.25-10.42,6.94,0,13.48,4.67,19.64,13.97,6.15,9.3,9.38,19.64,9.71,31-13.89-1.57-26.04-5.99-36.45-13.25Z" />
    <path class="cls-1"
        d="M1890.9,748.16c-1.13.03-2.24.04-3.37.04v66.27c.85,0,1.69-.01,2.52-.04.13.01.27,0,.39,0,.77-.01,1.53-.05,2.3-.09v-66.14c-.62,0-1.22-.01-1.84-.04Z" />
    <path class="cls-1"
        d="M2161.87,633.18c-11.05-24.93-26.82-37.4-47.33-37.4-25.25,0-48.59,20.35-70.06,61.06-1.26-2.2-2.68-3.32-4.26-3.32-3.48,0-13.57,12.15-30.3,36.45-17.67,25.88-32.5,41.34-44.49,46.39-18.24,7.48-37.48,11.4-57.69,11.79.62.03,1.22.04,1.84.04v66.14c29.05-1.4,54.46-14.6,76.21-39.63,6.31-6.94,18.62-25.87,36.92-56.8,2.32,3.07,4.89,6.09,7.71,9.07l-7.48,62.04,22.87-48.16c10.3,8.04,22.65,15.69,37.01,22.95,23.99,11.68,41.98,17.52,53.96,17.52,10.73,0,20.2-7.73,28.4-23.2,7.26-14.51,10.89-29.83,10.89-45.91,0-31.56-4.74-57.91-14.2-79.05ZM2091.34,692.82c-1.89-1.26-9.93-8.36-24.14-21.3,7.57-6.94,17.99-10.42,31.24-10.42,6.94,0,13.49,4.67,19.64,13.97,6.16,9.3,9.4,19.64,9.71,31-13.88-1.57-26.03-5.99-36.45-13.25Z" />
    <path class="cls-1"
        d="M304.45,883.72c-20.26,13.17-39.76,25.03-58.5,35.57-6.95,3.92-13.81,7.65-20.56,11.2-8.05,4.24-15.95,8.23-23.71,11.95L0,960.28c15.24-7.32,33.65-15.5,55.22-24.58,82.01-34.62,138.81-60.34,170.45-77.11,5.25-2.79,9.81-5.33,13.68-7.62,2.21-1.32,4.42-2.62,6.59-3.91,11.97-7.09,23.33-13.84,34.04-20.23l24.46,56.89Z" />
    <path class="cls-1"
        d="M527.28,618.59c.39,4.89.58,9.41.58,13.61-.2,22.11-2.4,41.28-6.64,57.49-1.79,6.83-3.93,13.13-6.44,18.91-1.64,3.79-3.42,7.34-5.37,10.69-.52.89-1.13,1.83-1.83,2.83-1.06,1.49-2.31,3.11-3.79,4.86-3.96,4.73-9.44,10.36-16.44,16.91-5.07,4.74-10.95,9.97-17.64,15.68-6.04,5.19-12.73,10.78-20.07,16.75-3.88,3.17-7.95,6.43-12.2,9.81-1.75,1.4-3.53,2.81-5.34,4.24-10.05,7.95-21.08,16.48-33.06,25.59-2,1.52-4.01,3.05-6.07,4.59-4.54,3.41-9.02,6.78-13.52,10.11-6.7,4.94-13.3,9.81-19.87,14.51-8.93,6.44-17.73,12.66-26.4,18.66l-23.22-55.37c6.24-3.77,12.19-7.38,17.87-10.85,8.64-5.29,16.67-10.23,23.99-14.77,16.87-10.47,30.26-19.03,40.19-25.73,9.07-6.19,17.8-12.39,26.11-18.5,6.74-4.98,13.21-9.93,19.42-14.86,4.19-3.33,8.27-6.64,12.26-9.96,2.09-1.73,4.16-3.46,6.19-5.19,21.09-17.92,38.86-35.65,53.43-53.21-24.61-72.3-47.52-121.35-68.64-147.22,1.88-19.25,4.58-38.5,8.03-57.75,1.58-8.23,5.36-8.69,11.34-1.45,5.41,5.69,15.01,16.75,28.9,33.13l20.12,51.96-.42-4.26c36.98,22.87,93.23,35.89,141.91,43.29-.75,10.04-1.11,20.16-1.11,30.38,0,15.81.82,30.87,2.46,45.18-63.04-5.83-106.11-21.87-124.72-30.08Z" />
    <path class="cls-1"
        d="M336.72,862.07c-10.97,7.57-21.72,14.79-32.27,21.65l-24.46-56.89c11.96-7.14,23.13-13.85,33.51-20.14l23.22,55.37Z" />
    <path class="cls-1"
        d="M687.51,647.9c-7.76-.38-15.26-.91-22.5-1.58-1.64-14.31-2.46-29.37-2.46-45.18,0-10.22.36-20.34,1.11-30.38,5.33.81,10.56,1.54,15.68,2.23-.13,3.41-.2,6.81-.2,10.2,0,24.16,2.79,45.73,8.36,64.72Z" />
    <path class="cls-1" d="M768.28,284.81l-.91-.31c.15-.04.46.07.91.31Z" />
    <path class="cls-2"
        d="M259.81,963.1c-5.38-2.08-9.03-6.55-10.97-13.45-1.88-6.71-2.85-16.83-2.9-30.35-6.95,3.92-13.81,7.65-20.56,11.2-.42,8.07-1.28,14.44-2.59,19.16-1.93,6.9-5.65,11.37-11.17,13.45-5.52,2.07-13.93,3.1-25.24,3.1v12.4h97.2v-12.4c-10.47,0-18.4-1.03-23.77-3.1ZM503.64,963.3c-5.24-1.92-8.82-5.58-10.75-10.97-1.93-5.37-2.89-13.02-2.89-22.95v-172.48c0-5.66.3-10.58.89-14.77-5.07,4.74-10.95,9.97-17.64,15.68-6.04,5.19-12.73,10.78-20.07,16.75v154.82c0,9.93-.82,17.58-2.48,22.95-1.65,5.38-5.1,9.05-10.34,10.97-5.24,1.93-13.24,2.9-23.99,2.9v12.4h110.02v-12.4c-9.92,0-17.52-.97-22.75-2.9ZM402.58,814.2l-42.04,100.7h-1.65l-22.16-52.84-23.22-55.37-41.9-99.86h-84.38v12.42c11.02,0,19.24,1.03,24.61,3.1,5.38,2.07,9.03,5.79,10.97,11.17,1.92,5.37,2.89,13.3,2.89,23.79v101.28c5.25-2.79,9.81-5.33,13.68-7.62,2.21-1.32,4.42-2.62,6.59-3.91v-95.55h1.66l32.38,75.32,24.46,56.89,40.78,94.88h9.92l80.49-189.98c-10.05,7.95-21.08,16.48-33.06,25.59Z" />
    <path class="cls-2"
        d="M735.7,945.51c-2.77,3.03-5.73,5.52-8.9,7.45-3.17,1.93-6.68,2.89-10.55,2.89-4.4,0-7.58-1.23-9.5-3.72-1.93-2.48-2.9-7.99-2.9-16.54v-93.9c0-21.52-4.7-37.51-14.07-47.99-9.37-10.47-25.37-15.72-47.98-15.72-14.89,0-27.79,2.21-38.67,6.62-10.9,4.42-19.3,10.08-25.24,16.97-5.93,6.9-8.89,14.2-8.89,21.92,0,6.9,1.85,11.93,5.57,15.1,3.73,3.17,7.66,4.75,11.8,4.75,5.79,0,10.27-1.58,13.44-4.75,3.17-3.17,4.77-7.93,4.77-14.27,0-12.42,1.65-21.1,4.95-26.07,3.32-4.97,10.9-7.44,22.75-7.44s21.72,3.79,27.92,11.37c6.2,7.58,9.3,20.34,9.3,38.26v18.2c-7.17,2.21-15.44,4.55-24.81,7.03-9.38,2.48-18.97,5.52-28.75,9.1-9.8,3.58-18.89,8-27.3,13.24-8.42,5.24-15.17,11.65-20.27,19.24-5.1,7.58-7.65,16.89-7.65,27.92,0,13.24,4.2,24.27,12.62,33.09,8.4,8.83,20.62,13.24,36.61,13.24,8.82,0,16.62-1.18,23.37-3.52,6.75-2.34,13.1-5.72,19.03-10.13,5.92-4.4,12.05-9.37,18.4-14.89h1.85c1.38,8.22,3.3,14.69,5.8,19.44,2.9,5.52,9.17,8.27,18.82,8.27,10.47,0,18.82-2.27,25.02-6.82,6.2-4.55,12.75-11.79,19.65-21.72l-6.2-6.62ZM649.46,953.38c-7.87,3.58-15.38,5.37-22.54,5.37-8.83,0-16-3.03-21.52-9.1-5.52-6.05-8.27-14.2-8.27-24.4,0-10.75,3.45-19.44,10.34-26.06,6.89-6.62,15.85-12,26.89-16.14,11.03-4.13,22.75-7.72,35.16-10.75v68.25c-6.54,5.44-13.22,9.71-20.05,12.83Z" />
    <path class="cls-2"
        d="M1086.46,966.61v11.99h-93.48v-11.99c9.37,0,16.14-1.25,20.27-3.73,4.13-2.48,6.68-6.4,7.65-11.79.97-5.38,1.45-12.2,1.45-20.47v-79.43c0-12.67-1.6-22.32-4.77-28.95-3.17-6.62-7.44-11.22-12.82-13.85-5.37-2.62-11.37-3.93-17.99-3.93-9.1,0-18.07,3.25-26.89,9.73-7.5,5.5-14.39,10.86-20.69,16.07v100.37c0,9.37.62,16.69,1.87,21.92,1.23,5.24,4.07,8.89,8.48,10.97,4.4,2.07,11.57,3.1,21.5,3.1v11.99h-98.03v-11.99c9.92,0,17.09-.97,21.5-2.9,4.42-1.93,7.24-5.52,8.48-10.75,1.23-5.24,1.87-12.69,1.87-22.34v-81.9c0-17.65-3.11-29.44-9.32-35.37-6.2-5.93-14.14-8.9-23.79-8.9-7.72,0-14.95,1.66-21.71,4.97-6.77,3.32-12.9,7.18-18.4,11.58-4.39,3.5-8.26,6.83-11.58,10v107.47c0,7.73.82,13.58,2.48,17.58,1.65,4,4.68,6.75,9.1,8.27,4.4,1.52,10.89,2.28,19.44,2.28v11.99h-94.31v-11.99c8.82,0,15.24-.77,19.24-2.28,4-1.52,6.62-4.4,7.85-8.69,1.25-4.27,1.87-10.55,1.87-18.82v-115.82c0-7.45-1.45-12.4-4.34-14.89-2.9-2.48-7.25-3.73-13.03-3.73-3.03,0-6.77.28-11.17.83v-12l51.71-11.99h9.92v33.51h1.66c11.3-9.65,22.19-17.85,32.67-24.62,10.47-6.75,22.75-10.13,36.81-10.13,12.42,0,22.4,3.6,29.99,10.77,6.79,6.42,12.09,14.27,15.89,23.57h1.69c11.3-11.3,22.34-19.85,33.09-25.64,10.75-5.8,21.64-8.7,32.67-8.7,16.27,0,29.24,5.11,38.89,15.3,9.65,10.22,14.47,27.87,14.47,52.96v84.38c0,8.55.48,15.5,1.45,20.89.97,5.37,3.58,9.24,7.87,11.58,4.27,2.34,11.09,3.52,20.47,3.52Z" />
    <path class="cls-2"
        d="M1286.66,945.51c-2.77,3.03-5.73,5.52-8.9,7.45-3.17,1.93-6.68,2.89-10.54,2.89-4.42,0-7.6-1.23-9.52-3.72-1.93-2.48-2.9-7.99-2.9-16.54v-93.9c0-21.52-4.68-37.51-14.05-47.99-9.38-10.47-25.38-15.72-47.99-15.72-14.89,0-27.79,2.21-38.67,6.62-10.9,4.42-19.3,10.08-25.24,16.97-5.93,6.9-8.89,14.2-8.89,21.92,0,6.9,1.87,11.93,5.58,15.1,3.72,3.17,7.65,4.75,11.79,4.75,5.79,0,10.27-1.58,13.45-4.75,3.15-3.17,4.75-7.93,4.75-14.27,0-12.42,1.65-21.1,4.97-26.07,3.3-4.97,10.89-7.44,22.74-7.44s21.72,3.79,27.92,11.37c6.22,7.58,9.32,20.34,9.32,38.26v18.2c-7.18,2.21-15.45,4.55-24.82,7.03-9.38,2.48-18.97,5.52-28.75,9.1-9.79,3.58-18.89,8-27.3,13.24-8.4,5.24-15.16,11.65-20.26,19.24-5.11,7.58-7.65,16.89-7.65,27.92,0,13.24,4.2,24.27,12.6,33.09,8.42,8.83,20.62,13.24,36.61,13.24,8.83,0,16.62-1.18,23.38-3.52,6.75-2.34,13.09-5.72,19.02-10.13,5.92-4.4,12.05-9.37,18.4-14.89h1.85c1.38,8.22,3.3,14.69,5.8,19.44,2.9,5.52,9.17,8.27,18.82,8.27,10.48,0,18.82-2.27,25.04-6.82,6.2-4.55,12.74-11.79,19.64-21.72l-6.2-6.62ZM1200.42,953.38c-7.85,3.58-15.37,5.37-22.54,5.37-8.83,0-16-3.03-21.5-9.1-5.53-6.05-8.28-14.2-8.28-24.4,0-10.75,3.45-19.44,10.35-26.06,6.89-6.62,15.85-12,26.89-16.14,11.02-4.13,22.74-7.72,35.16-10.75v68.25c-6.54,5.44-13.22,9.71-20.07,12.83Z" />
    <path class="cls-2"
        d="M1524.09,967.01v11.58h-95.55v-11.58c9.92,0,17.02-.89,21.3-2.68,4.27-1.79,6.89-4.89,7.85-9.3.97-4.42,1.45-10.48,1.45-18.2v-74.86c0-16.55-1.87-28.95-5.58-37.24-3.72-8.27-8.48-13.71-14.27-16.34-5.79-2.62-11.87-3.93-18.2-3.93-8,0-15.17,1.6-21.5,4.77-6.35,3.17-12.07,6.97-17.17,11.37-4,3.46-7.8,6.75-11.37,9.88v106.36c0,7.72.54,13.79,1.65,18.2,1.1,4.42,3.85,7.52,8.27,9.3,4.4,1.8,11.58,2.68,21.5,2.68v11.58h-94.72v-11.58c9.37,0,16.05-.89,20.06-2.68,4-1.79,6.48-4.89,7.45-9.3.97-4.42,1.45-10.48,1.45-18.2v-116.24c0-7.45-1.52-12.34-4.55-14.69-3.03-2.34-7.32-3.52-12.82-3.52-3.58,0-7.32.28-11.17.83v-12l52.53-11.99h9.52l-.36,33.51h1.6c11.3-9.93,21.99-18.2,32.06-24.82.35-.23.7-.46,1.05-.66,9.81-6.19,20.98-9.28,33.49-9.28,10.78,0,19.96,2.09,27.56,6.31,4.04,2.21,7.61,5.02,10.75,8.44,1.22,1.33,2.39,2.77,3.48,4.28,3.03,4.23,5.56,9.07,7.57,14.52,4.05,10.9,6.08,24.27,6.08,40.07v85.21c0,7.72.62,13.79,1.85,18.2,1.25,4.42,4.07,7.52,8.48,9.3,4.4,1.8,11.17,2.68,20.27,2.68Z" />
    <path class="cls-2"
        d="M1846.52,741.38c-5.65-8.95-13.24-15.92-22.74-20.89-9.52-4.97-20.42-8.48-32.69-10.55-5.44-.91-10.97-1.62-16.61-2.12-7.06-.66-14.28-.98-21.65-.98h-4.79c.01,1.01.01,2.03.01,3.05,0,4.43-.27,8.79-.83,13.09h.64c13.73,0,25.3,1.91,34.7,5.71,5.89,2.39,10.94,5.52,15.14,9.4,9.52,8.81,14.89,20.93,16.08,36.38.17,2.21.26,4.5.26,6.85,0,15.99-2.62,28.47-7.85,37.43-5.25,8.97-12.97,15.32-23.17,19.03-10.2,3.72-22.74,5.58-37.64,5.58-4.13,0-8.34-.21-12.62-.62-4.27-.42-7.52-.77-9.72-1.03v-67.82c-4.48,3.41-9.25,5.11-14.27,5.11-6.28,0-14.22-1.6-23.79-4.81v151.89c0,11.58-.82,20.2-2.48,25.85-1.65,5.65-5.1,9.45-10.34,11.37-5.24,1.93-13.24,2.9-23.99,2.9v12.4h116.65v-12.4c-11.03,0-19.58-.83-25.65-2.48-6.07-1.65-10.27-5.24-12.62-10.75-2.35-5.52-3.52-13.92-3.52-25.24v-70.73c2.2,1.1,5.65,1.93,10.35,2.48,4.68.55,9.1.82,13.24.82,13.5,0,26.74-1.37,39.71-4.13,12.95-2.75,24.61-7.44,34.96-14.07,10.34-6.62,18.54-15.36,24.61-26.26,2.03-3.65,3.72-7.57,5.06-11.79,2.7-8.39,4.04-17.91,4.04-28.55,0-13.79-2.83-25.16-8.48-34.12Z" />
    <path class="cls-2"
        d="M2045.69,945.51c-2.77,3.03-5.73,5.52-8.9,7.45-3.17,1.93-6.68,2.89-10.55,2.89-4.4,0-7.58-1.23-9.5-3.72-1.93-2.48-2.9-7.99-2.9-16.54v-93.9c0-21.52-4.7-37.51-14.07-47.99-9.37-10.47-25.37-15.72-47.98-15.72-14.89,0-27.79,2.21-38.67,6.62-10.9,4.42-19.3,10.08-25.24,16.97-5.93,6.9-8.89,14.2-8.89,21.92,0,6.9,1.85,11.93,5.58,15.1,3.72,3.17,7.65,4.75,11.79,4.75,5.79,0,10.27-1.58,13.44-4.75s4.77-7.93,4.77-14.27c0-12.42,1.65-21.1,4.95-26.07,3.32-4.97,10.9-7.44,22.75-7.44s21.72,3.79,27.92,11.37c6.2,7.58,9.3,20.34,9.3,38.26v18.2c-7.17,2.21-15.44,4.55-24.81,7.03-9.38,2.48-18.97,5.52-28.75,9.1-9.79,3.58-18.89,8-27.3,13.24-8.42,5.24-15.17,11.65-20.27,19.24-5.1,7.58-7.65,16.89-7.65,27.92,0,13.24,4.2,24.27,12.62,33.09,8.42,8.83,20.62,13.24,36.61,13.24,8.82,0,16.62-1.18,23.37-3.52,6.75-2.34,13.1-5.72,19.03-10.13,5.92-4.4,12.05-9.37,18.4-14.89h1.85c1.38,8.22,3.3,14.69,5.8,19.44,2.9,5.52,9.17,8.27,18.82,8.27,10.47,0,18.82-2.27,25.02-6.82,6.2-4.55,12.75-11.79,19.65-21.72l-6.2-6.62ZM1959.44,953.38c-7.85,3.58-15.37,5.37-22.54,5.37-8.83,0-16-3.03-21.52-9.1-5.52-6.05-8.27-14.2-8.27-24.4,0-10.75,3.45-19.44,10.34-26.06,6.9-6.62,15.85-12,26.89-16.14,11.03-4.13,22.75-7.72,35.16-10.75v68.25c-6.54,5.44-13.22,9.71-20.05,12.83Z" />
    <path class="cls-2"
        d="M2225.2,978.6h-158.84v-12l116.23-165.04v-1.24h-55.84c-15.17,0-25.3,3.79-30.4,11.38-5.11,7.59-8.62,18.27-10.55,32.06h-12.82l2.07-60.8h152.63v12l-116.23,165.45v1.24h51.7c11.85,0,21.1-1.45,27.71-4.34,6.62-2.9,11.72-7.92,15.31-15.1,3.58-7.17,6.75-17.09,9.51-29.78h13.65l-4.14,66.18Z" />
    <path class="cls-1"
        d="M1419.47,136.83c4.72,19.14,7.87,40.9,7.87,59.78,0,4.46-.52,11.27-2.1,15.47-2.62,7.08-4.98,11.54-9.18,17.3l-1.84-.52c0-21.5-3.67-49.29-10.49-72.62,4.72-7.34,9.44-13.9,14.16-19.66l1.57.26Z" />
    <path class="cls-1" d="M843.97,624.31c-1.13.66-2.28,1.32-3.45,1.97,1.29-.78,2.43-1.44,3.45-1.97Z" />
</svg>