<?xml version="1.0" encoding="UTF-8"?>
<svg id="Layer_1" xmlns="http://www.w3.org/2000/svg" viewBox="0 0 2013.5 2013.53" fill="currentColor">
    <defs>
        <style>
            .cls-1 {
                stroke-width: 0px;
            }
        </style>
    </defs>
    <path class="cls-1"
        d="M1083.41,992.67c-7.68-12.22-16.02-18.46-25-18.66-17.14-.41-30.73,3.78-40.73,12.53,17.99,17.16,28.17,26.6,30.59,28.3,13.26,9.7,28.83,15.78,46.75,18.23-.05-14.71-3.94-28.18-11.62-40.4ZM1204.48,927.17c.12-2.49.33-4.95.59-7.37.71-6.39,1.8-12.62,2.68-18.84,4.9-33.7,11.48-67.11,22.08-99.6,1.19-3.64,1.12-7.75,1.86-13.6-6.94,1.19-11.76,1.97-16.56,2.87-25.24,4.8-50.46,9.74-75.74,14.48-71.35,15.71-169.09,26.05-269.82,2.38-25.69-4.8-50.41-11.79-74.74-19.3-.79.5-1.47,1-2.05,1.52,17.78,54.88,46.03,167.39,29.21,290.83,21.51-1.17,42.21-5.56,62.06-13.16,15.66-6.18,35.32-25.74,58.96-58.7,22.37-30.94,35.81-46.34,40.29-46.23,2.04.03,3.85,1.52,5.4,4.42,29-52.03,59.82-77.67,92.48-76.91,26.55.62,46.58,17.23,60.11,49.82,11.62,27.64,16.95,61.87,16,102.7-.48,20.8-5.63,40.52-15.47,59.08-11.08,19.75-23.57,29.47-37.45,29.16-15.52-.36-38.62-8.46-69.3-24.29-18.37-9.84-34.11-20.11-47.2-30.82l-31.04,61.63,11.55-80.05c-3.57-3.95-6.78-7.92-9.7-11.98-24.6,39.47-41.11,63.58-49.48,72.37-28.04,30.8-70.26,48.84-107.12,50.7v.02c-.47.02-.95.03-1.42.05-.79,3.87-1.62,7.72-2.5,11.57-1.73,7.68-3.59,15.35-5.58,22.98-1.14,4.47-2.59,8.96-2.95,13.52-.16,2.09.12,4.21.52,6.6.24-.05.48-.1.72-.16.66-.14,1.35-.29,2.09-.43,7.7-1.59,19.11-3.82,33.44-6.27,1-.17,2.02-.35,3.06-.52,4.28-.73,8.84-1.47,13.6-2.21.95-.16,1.9-.29,2.85-.45,1.19-.19,2.42-.36,3.64-.55.76-.12,1.52-.22,2.28-.35,7.06-1.05,14.54-2.11,22.39-3.12,2.49-.33,5.01-.66,7.56-.97,5.35-.66,10.86-1.31,16.52-1.95,3.76-.4,7.58-.81,11.46-1.19,2.31-.24,4.64-.47,7.01-.69,1.42-.14,2.85-.28,4.28-.4,4.8-.43,9.67-.85,14.61-1.24,2.87-.22,5.77-.43,8.68-.64,6.39-.45,12.88-.85,19.46-1.19,1.85-.1,3.69-.19,5.54-.28,1.64-.09,3.28-.16,4.92-.22,3.95-.16,7.94-.31,11.96-.43,1.9-.07,3.78-.12,5.7-.16,1.24-.03,2.5-.05,3.76-.09,1.61-.03,3.19-.07,4.8-.09,1.59-.03,3.19-.05,4.8-.07,73.93-.78,154.03,7.18,219.77,34.91,6.49-5.63,3.06-10.74,1.66-15.88-11.69-42.66-18.78-86.17-22.31-130.26-.17-2.11-.88-4.2-1.33-6.27.45-.21.9-.41,1.36-.62.1-.05.21-.1.33-.16-.1-.78-.21-1.57-.31-2.37v-.03c-5.63-45.58-7.04-96.06-.1-148.3,0-1.09.03-2.16.09-3.23ZM1083.41,992.67c-7.68-12.22-16.02-18.46-25-18.66-17.14-.41-30.73,3.78-40.73,12.53,17.99,17.16,28.17,26.6,30.59,28.3,13.26,9.7,28.83,15.78,46.75,18.23-.05-14.71-3.94-28.18-11.62-40.4ZM1083.41,992.67c-7.68-12.22-16.02-18.46-25-18.66-17.14-.41-30.73,3.78-40.73,12.53,17.99,17.16,28.17,26.6,30.59,28.3,13.26,9.7,28.83,15.78,46.75,18.23-.05-14.71-3.94-28.18-11.62-40.4ZM1083.41,992.67c-7.68-12.22-16.02-18.46-25-18.66-17.14-.41-30.73,3.78-40.73,12.53,17.99,17.16,28.17,26.6,30.59,28.3,13.26,9.7,28.83,15.78,46.75,18.23-.05-14.71-3.94-28.18-11.62-40.4ZM1204.48,927.17c.12-2.49.33-4.95.59-7.37.71-6.39,1.8-12.62,2.68-18.84,4.9-33.7,11.48-67.11,22.08-99.6,1.19-3.64,1.12-7.75,1.86-13.6-6.94,1.19-11.76,1.97-16.56,2.87-25.24,4.8-50.46,9.74-75.74,14.48-71.35,15.71-169.09,26.05-269.82,2.38-25.69-4.8-50.41-11.79-74.74-19.3-.79.5-1.47,1-2.05,1.52,17.78,54.88,46.03,167.39,29.21,290.83,21.51-1.17,42.21-5.56,62.06-13.16,15.66-6.18,35.32-25.74,58.96-58.7,22.37-30.94,35.81-46.34,40.29-46.23,2.04.03,3.85,1.52,5.4,4.42,29-52.03,59.82-77.67,92.48-76.91,26.55.62,46.58,17.23,60.11,49.82,11.62,27.64,16.95,61.87,16,102.7-.48,20.8-5.63,40.52-15.47,59.08-11.08,19.75-23.57,29.47-37.45,29.16-15.52-.36-38.62-8.46-69.3-24.29-18.37-9.84-34.11-20.11-47.2-30.82l-31.04,61.63,11.55-80.05c-3.57-3.95-6.78-7.92-9.7-11.98-24.6,39.47-41.11,63.58-49.48,72.37-28.04,30.8-70.26,48.84-107.12,50.7v.02c-.47.02-.95.03-1.42.05-.79,3.87-1.62,7.72-2.5,11.57-1.73,7.68-3.59,15.35-5.58,22.98-1.14,4.47-2.59,8.96-2.95,13.52-.16,2.09.12,4.21.52,6.6.24-.05.48-.1.72-.16.66-.14,1.35-.29,2.09-.43,7.7-1.59,19.11-3.82,33.44-6.27,1-.17,2.02-.35,3.06-.52,4.28-.73,8.84-1.47,13.6-2.21.95-.16,1.9-.29,2.85-.45,1.19-.19,2.42-.36,3.64-.55.76-.12,1.52-.22,2.28-.35,7.06-1.05,14.54-2.11,22.39-3.12,2.49-.33,5.01-.66,7.56-.97,5.35-.66,10.86-1.31,16.52-1.95,3.76-.4,7.58-.81,11.46-1.19,2.31-.24,4.64-.47,7.01-.69,1.42-.14,2.85-.28,4.28-.4,4.8-.43,9.67-.85,14.61-1.24,2.87-.22,5.77-.43,8.68-.64,6.39-.45,12.88-.85,19.46-1.19,1.85-.1,3.69-.19,5.54-.28,1.64-.09,3.28-.16,4.92-.22,3.95-.16,7.94-.31,11.96-.43,1.9-.07,3.78-.12,5.7-.16,1.24-.03,2.5-.05,3.76-.09,1.61-.03,3.19-.07,4.8-.09,1.59-.03,3.19-.05,4.8-.07,73.93-.78,154.03,7.18,219.77,34.91,6.49-5.63,3.06-10.74,1.66-15.88-11.69-42.66-18.78-86.17-22.31-130.26-.17-2.11-.88-4.2-1.33-6.27.45-.21.9-.41,1.36-.62l.02-2.52v-.03c-5.63-45.58-7.04-96.06-.1-148.3,0-1.09.03-2.16.09-3.23ZM1083.41,992.67c-7.68-12.22-16.02-18.46-25-18.66-17.14-.41-30.73,3.78-40.73,12.53,17.99,17.16,28.17,26.6,30.59,28.3,13.26,9.7,28.83,15.78,46.75,18.23-.05-14.71-3.94-28.18-11.62-40.4ZM1083.41,992.67c-7.68-12.22-16.02-18.46-25-18.66-17.14-.41-30.73,3.78-40.73,12.53,17.99,17.16,28.17,26.6,30.59,28.3,13.26,9.7,28.83,15.78,46.75,18.23-.05-14.71-3.94-28.18-11.62-40.4ZM1204.48,927.17c.12-2.49.33-4.95.59-7.37.71-6.39,1.8-12.62,2.68-18.84,4.9-33.7,11.48-67.11,22.08-99.6,1.19-3.64,1.12-7.75,1.86-13.6-6.94,1.19-11.76,1.97-16.56,2.87-25.24,4.8-50.46,9.74-75.74,14.48-71.35,15.71-169.09,26.05-269.82,2.38-25.69-4.8-50.41-11.79-74.74-19.3-.79.5-1.47,1-2.05,1.52,17.78,54.88,46.03,167.39,29.21,290.83,21.51-1.17,42.21-5.56,62.06-13.16,15.66-6.18,35.32-25.74,58.96-58.7,22.37-30.94,35.81-46.34,40.29-46.23,2.04.03,3.85,1.52,5.4,4.42,29-52.03,59.82-77.67,92.48-76.91,26.55.62,46.58,17.23,60.11,49.82,11.62,27.64,16.95,61.87,16,102.7-.48,20.8-5.63,40.52-15.47,59.08-11.08,19.75-23.57,29.47-37.45,29.16-15.52-.36-38.62-8.46-69.3-24.29-18.37-9.84-34.11-20.11-47.2-30.82l-31.04,61.63,11.55-80.05c-3.57-3.95-6.78-7.92-9.7-11.98-24.6,39.47-41.11,63.58-49.48,72.37-28.04,30.8-70.26,48.84-107.12,50.7v.02c-.47.02-.95.03-1.42.05-.79,3.87-1.62,7.72-2.5,11.57-1.73,7.68-3.59,15.35-5.58,22.98-1.14,4.47-2.59,8.96-2.95,13.52-.16,2.09.12,4.21.52,6.6.24-.05.48-.1.72-.16.66-.14,1.35-.29,2.09-.43,7.7-1.59,19.11-3.82,33.44-6.27,1-.17,2.02-.35,3.06-.52,4.28-.73,8.84-1.47,13.6-2.21.95-.16,1.9-.29,2.85-.45,1.19-.19,2.42-.36,3.64-.55.76-.12,1.52-.22,2.28-.35,7.06-1.05,14.54-2.11,22.39-3.12,2.49-.33,5.01-.66,7.56-.97,5.35-.66,10.86-1.31,16.52-1.95,3.76-.4,7.58-.81,11.46-1.19,2.31-.24,4.64-.47,7.01-.69,1.42-.14,2.85-.28,4.28-.4,4.8-.43,9.67-.85,14.61-1.24,2.87-.22,5.77-.43,8.68-.64,6.39-.45,12.88-.85,19.46-1.19,1.85-.1,3.69-.19,5.54-.28,1.64-.09,3.28-.16,4.92-.22,3.95-.16,7.94-.31,11.96-.43,1.9-.07,3.78-.12,5.7-.16,1.24-.03,2.5-.05,3.76-.09,1.61-.03,3.19-.07,4.8-.09,1.59-.03,3.19-.05,4.8-.07,73.93-.78,154.03,7.18,219.77,34.91,6.49-5.63,3.06-10.74,1.66-15.88-11.69-42.66-18.78-86.17-22.31-130.26-.17-2.11-.88-4.2-1.33-6.27.45-.21.9-.41,1.36-.62l.02-2.52v-.03c-5.63-45.58-7.04-96.06-.1-148.3,0-1.09.03-2.16.09-3.23ZM1083.41,992.67c-7.68-12.22-16.02-18.46-25-18.66-17.14-.41-30.73,3.78-40.73,12.53,17.99,17.16,28.17,26.6,30.59,28.3,13.26,9.7,28.83,15.78,46.75,18.23-.05-14.71-3.94-28.18-11.62-40.4ZM1083.41,992.67c-7.68-12.22-16.02-18.46-25-18.66-17.14-.41-30.73,3.78-40.73,12.53,17.99,17.16,28.17,26.6,30.59,28.3,13.26,9.7,28.83,15.78,46.75,18.23-.05-14.71-3.94-28.18-11.62-40.4ZM1204.48,927.17c.12-2.49.33-4.95.59-7.37.71-6.39,1.8-12.62,2.68-18.84,4.9-33.7,11.48-67.11,22.08-99.6,1.19-3.64,1.12-7.75,1.86-13.6-6.94,1.19-11.76,1.97-16.56,2.87-25.24,4.8-50.46,9.74-75.74,14.48-71.35,15.71-169.09,26.05-269.82,2.38-25.69-4.8-50.41-11.79-74.74-19.3-.79.5-1.47,1-2.05,1.52,17.78,54.88,46.03,167.39,29.21,290.83,21.51-1.17,42.21-5.56,62.06-13.16,15.66-6.18,35.32-25.74,58.96-58.7,22.37-30.94,35.81-46.34,40.29-46.23,2.04.03,3.85,1.52,5.4,4.42,29-52.03,59.82-77.67,92.48-76.91,26.55.62,46.58,17.23,60.11,49.82,11.62,27.64,16.95,61.87,16,102.7-.48,20.8-5.63,40.52-15.47,59.08-11.08,19.75-23.57,29.47-37.45,29.16-15.52-.36-38.62-8.46-69.3-24.29-18.37-9.84-34.11-20.11-47.2-30.82l-31.04,61.63,11.55-80.05c-3.57-3.95-6.78-7.92-9.7-11.98-24.6,39.47-41.11,63.58-49.48,72.37-28.04,30.8-70.26,48.84-107.12,50.7v.02c-.47.02-.95.03-1.42.05-.79,3.87-1.62,7.72-2.5,11.57-1.73,7.68-3.59,15.35-5.58,22.98-1.14,4.47-2.59,8.96-2.95,13.52-.16,2.09.12,4.21.52,6.6.24-.05.48-.1.72-.16.66-.14,1.35-.29,2.09-.43,7.7-1.59,19.11-3.82,33.44-6.27,1-.17,2.02-.35,3.06-.52,4.28-.73,8.84-1.47,13.6-2.21.95-.16,1.9-.29,2.85-.45,1.19-.19,2.42-.36,3.64-.55.76-.12,1.52-.22,2.28-.35,7.06-1.05,14.54-2.11,22.39-3.12,2.49-.33,5.01-.66,7.56-.97,5.35-.66,10.86-1.31,16.52-1.95,3.76-.4,7.58-.81,11.46-1.19,2.31-.24,4.64-.47,7.01-.69,1.42-.14,2.85-.28,4.28-.4,4.8-.43,9.67-.85,14.61-1.24,2.87-.22,5.77-.43,8.68-.64,6.39-.45,12.88-.85,19.46-1.19,1.85-.1,3.69-.19,5.54-.28,1.64-.09,3.28-.16,4.92-.22,3.95-.16,7.94-.31,11.96-.43,1.9-.07,3.78-.12,5.7-.16,1.24-.03,2.5-.05,3.76-.09,1.61-.03,3.19-.07,4.8-.09,1.59-.03,3.19-.05,4.8-.07,73.93-.78,154.03,7.18,219.77,34.91,6.49-5.63,3.06-10.74,1.66-15.88-11.69-42.66-18.78-86.17-22.31-130.26-.17-2.11-.88-4.2-1.33-6.27.45-.21.9-.41,1.36-.62.1-.05.21-.1.33-.16-.1-.78-.21-1.57-.31-2.37v-.03c-5.63-45.58-7.04-96.06-.1-148.3,0-1.09.03-2.16.09-3.23ZM1204.48,927.17c.12-2.49.33-4.95.59-7.37.71-6.39,1.8-12.62,2.68-18.84,4.9-33.7,11.48-67.11,22.08-99.6,1.19-3.64,1.12-7.75,1.86-13.6-6.94,1.19-11.76,1.97-16.56,2.87-25.24,4.8-50.46,9.74-75.74,14.48-71.35,15.71-169.09,26.05-269.82,2.38-25.69-4.8-50.41-11.79-74.74-19.3-.79.5-1.47,1-2.05,1.52,17.78,54.88,46.03,167.39,29.21,290.83,21.51-1.17,42.21-5.56,62.06-13.16,15.66-6.18,35.32-25.74,58.96-58.7,22.37-30.94,35.81-46.34,40.29-46.23,2.04.03,3.85,1.52,5.4,4.42,29-52.03,59.82-77.67,92.48-76.91,26.55.62,46.58,17.23,60.11,49.82,11.62,27.64,16.95,61.87,16,102.7-.48,20.8-5.63,40.52-15.47,59.08-11.08,19.75-23.57,29.47-37.45,29.16-15.52-.36-38.62-8.46-69.3-24.29-18.37-9.84-34.11-20.11-47.2-30.82l-31.04,61.63,11.55-80.05c-3.57-3.95-6.78-7.92-9.7-11.98-24.6,39.47-41.11,63.58-49.48,72.37-28.04,30.8-70.26,48.84-107.12,50.7v.02c-.47.02-.95.03-1.42.05-.79,3.87-1.62,7.72-2.5,11.57-1.73,7.68-3.59,15.35-5.58,22.98-1.14,4.47-2.59,8.96-2.95,13.52-.16,2.09.12,4.21.52,6.6.24-.05.48-.1.72-.16.66-.14,1.35-.29,2.09-.43,7.7-1.59,19.11-3.82,33.44-6.27,1-.17,2.02-.35,3.06-.52,4.28-.73,8.84-1.47,13.6-2.21.95-.16,1.9-.29,2.85-.45,1.19-.19,2.42-.36,3.64-.55.76-.12,1.52-.22,2.28-.35,7.06-1.05,14.54-2.11,22.39-3.12,2.49-.33,5.01-.66,7.56-.97,5.35-.66,10.86-1.31,16.52-1.95,3.76-.4,7.58-.81,11.46-1.19,2.31-.24,4.64-.47,7.01-.69,1.42-.14,2.85-.28,4.28-.4,4.8-.43,9.67-.85,14.61-1.24,2.87-.22,5.77-.43,8.68-.64,6.39-.45,12.88-.85,19.46-1.19,1.85-.1,3.69-.19,5.54-.28,1.64-.09,3.28-.16,4.92-.22,3.95-.16,7.94-.31,11.96-.43,1.9-.07,3.78-.12,5.7-.16,1.24-.03,2.5-.05,3.76-.09,1.61-.03,3.19-.07,4.8-.09,1.59-.03,3.19-.05,4.8-.07,73.93-.78,154.03,7.18,219.77,34.91,6.49-5.63,3.06-10.74,1.66-15.88-11.69-42.66-18.78-86.17-22.31-130.26-.17-2.11-.88-4.2-1.33-6.27.45-.21.9-.41,1.36-.62.1-.05.21-.1.33-.16-.1-.78-.21-1.57-.31-2.37v-.03c-5.63-45.58-7.04-96.06-.1-148.3,0-1.09.03-2.16.09-3.23ZM1083.41,992.67c-7.68-12.22-16.02-18.46-25-18.66-17.14-.41-30.73,3.78-40.73,12.53,17.99,17.16,28.17,26.6,30.59,28.3,13.26,9.7,28.83,15.78,46.75,18.23-.05-14.71-3.94-28.18-11.62-40.4ZM1083.41,992.67c-7.68-12.22-16.02-18.46-25-18.66-17.14-.41-30.73,3.78-40.73,12.53,17.99,17.16,28.17,26.6,30.59,28.3,13.26,9.7,28.83,15.78,46.75,18.23-.05-14.71-3.94-28.18-11.62-40.4ZM1204.48,927.17c.12-2.49.33-4.95.59-7.37.71-6.39,1.8-12.62,2.68-18.84,4.9-33.7,11.48-67.11,22.08-99.6,1.19-3.64,1.12-7.75,1.86-13.6-6.94,1.19-11.76,1.97-16.56,2.87-25.24,4.8-50.46,9.74-75.74,14.48-71.35,15.71-169.09,26.05-269.82,2.38-25.69-4.8-50.41-11.79-74.74-19.3-.79.5-1.47,1-2.05,1.52,17.78,54.88,46.03,167.39,29.21,290.83,21.51-1.17,42.21-5.56,62.06-13.16,15.66-6.18,35.32-25.74,58.96-58.7,22.37-30.94,35.81-46.34,40.29-46.23,2.04.03,3.85,1.52,5.4,4.42,29-52.03,59.82-77.67,92.48-76.91,26.55.62,46.58,17.23,60.11,49.82,11.62,27.64,16.95,61.87,16,102.7-.48,20.8-5.63,40.52-15.47,59.08-11.08,19.75-23.57,29.47-37.45,29.16-15.52-.36-38.62-8.46-69.3-24.29-18.37-9.84-34.11-20.11-47.2-30.82l-31.04,61.63,11.55-80.05c-3.57-3.95-6.78-7.92-9.7-11.98-24.6,39.47-41.11,63.58-49.48,72.37-28.04,30.8-70.26,48.84-107.12,50.7v.02c-.47.02-.95.03-1.42.05-.79,3.87-1.62,7.72-2.5,11.57-1.73,7.68-3.59,15.35-5.58,22.98-1.14,4.47-2.59,8.96-2.95,13.52-.16,2.09.12,4.21.52,6.6.24-.05.48-.1.72-.16.66-.14,1.35-.29,2.09-.43,7.7-1.59,19.11-3.82,33.44-6.27,1-.17,2.02-.35,3.06-.52,4.28-.73,8.84-1.47,13.6-2.21.95-.16,1.9-.29,2.85-.45,1.19-.19,2.42-.36,3.64-.55.76-.12,1.52-.22,2.28-.35,7.06-1.05,14.54-2.11,22.39-3.12,2.49-.33,5.01-.66,7.56-.97,5.35-.66,10.86-1.31,16.52-1.95,3.76-.4,7.58-.81,11.46-1.19,2.31-.24,4.64-.47,7.01-.69,1.42-.14,2.85-.28,4.28-.4,4.8-.43,9.67-.85,14.61-1.24,2.87-.22,5.77-.43,8.68-.64,6.39-.45,12.88-.85,19.46-1.19,1.85-.1,3.69-.19,5.54-.28,1.64-.09,3.28-.16,4.92-.22,3.95-.16,7.94-.31,11.96-.43,1.9-.07,3.78-.12,5.7-.16,1.24-.03,2.5-.05,3.76-.09,1.61-.03,3.19-.07,4.8-.09,1.59-.03,3.19-.05,4.8-.07,73.93-.78,154.03,7.18,219.77,34.91,6.49-5.63,3.06-10.74,1.66-15.88-11.69-42.66-18.78-86.17-22.31-130.26-.17-2.11-.88-4.2-1.33-6.27.45-.21.9-.41,1.36-.62.1-.05.21-.1.33-.16-.1-.78-.21-1.57-.31-2.37v-.03c-5.63-45.58-7.04-96.06-.1-148.3,0-1.09.03-2.16.09-3.23ZM1204.48,927.17c.12-2.49.33-4.95.59-7.37.71-6.39,1.8-12.62,2.68-18.84,4.9-33.7,11.48-67.11,22.08-99.6,1.19-3.64,1.12-7.75,1.86-13.6-6.94,1.19-11.76,1.97-16.56,2.87-25.24,4.8-50.46,9.74-75.74,14.48-71.35,15.71-169.09,26.05-269.82,2.38-25.69-4.8-50.41-11.79-74.74-19.3-.79.5-1.47,1-2.05,1.52,17.78,54.88,46.03,167.39,29.21,290.83,21.51-1.17,42.21-5.56,62.06-13.16,15.66-6.18,35.32-25.74,58.96-58.7,22.37-30.94,35.81-46.34,40.29-46.23,2.04.03,3.85,1.52,5.4,4.42,29-52.03,59.82-77.67,92.48-76.91,26.55.62,46.58,17.23,60.11,49.82,11.62,27.64,16.95,61.87,16,102.7-.48,20.8-5.63,40.52-15.47,59.08-11.08,19.75-23.57,29.47-37.45,29.16-15.52-.36-38.62-8.46-69.3-24.29-18.37-9.84-34.11-20.11-47.2-30.82l-31.04,61.63,11.55-80.05c-3.57-3.95-6.78-7.92-9.7-11.98-24.6,39.47-41.11,63.58-49.48,72.37-28.04,30.8-70.26,48.84-107.12,50.7v.02c-.47.02-.95.03-1.42.05-.79,3.87-1.62,7.72-2.5,11.57-1.73,7.68-3.59,15.35-5.58,22.98-1.14,4.47-2.59,8.96-2.95,13.52-.16,2.09.12,4.21.52,6.6.24-.05.48-.1.72-.16.66-.14,1.35-.29,2.09-.43,7.7-1.59,19.11-3.82,33.44-6.27,1-.17,2.02-.35,3.06-.52,4.28-.73,8.84-1.47,13.6-2.21.95-.16,1.9-.29,2.85-.45,1.19-.19,2.42-.36,3.64-.55.76-.12,1.52-.22,2.28-.35,7.06-1.05,14.54-2.11,22.39-3.12,2.49-.33,5.01-.66,7.56-.97,5.35-.66,10.86-1.31,16.52-1.95,3.76-.4,7.58-.81,11.46-1.19,2.31-.24,4.64-.47,7.01-.69,1.42-.14,2.85-.28,4.28-.4,4.8-.43,9.67-.85,14.61-1.24,2.87-.22,5.77-.43,8.68-.64,6.39-.45,12.88-.85,19.46-1.19,1.85-.1,3.69-.19,5.54-.28,1.64-.09,3.28-.16,4.92-.22,3.95-.16,7.94-.31,11.96-.43,1.9-.07,3.78-.12,5.7-.16,1.24-.03,2.5-.05,3.76-.09,1.61-.03,3.19-.07,4.8-.09,1.59-.03,3.19-.05,4.8-.07,73.93-.78,154.03,7.18,219.77,34.91,6.49-5.63,3.06-10.74,1.66-15.88-11.69-42.66-18.78-86.17-22.31-130.26-.17-2.11-.88-4.2-1.33-6.27.45-.21.9-.41,1.36-.62.1-.05.21-.1.33-.16-.1-.78-.21-1.57-.31-2.37v-.03c-5.63-45.58-7.04-96.06-.1-148.3,0-1.09.03-2.16.09-3.23ZM1083.41,992.67c-7.68-12.22-16.02-18.46-25-18.66-17.14-.41-30.73,3.78-40.73,12.53,17.99,17.16,28.17,26.6,30.59,28.3,13.26,9.7,28.83,15.78,46.75,18.23-.05-14.71-3.94-28.18-11.62-40.4ZM1083.41,992.67c-7.68-12.22-16.02-18.46-25-18.66-17.14-.41-30.73,3.78-40.73,12.53,17.99,17.16,28.17,26.6,30.59,28.3,13.26,9.7,28.83,15.78,46.75,18.23-.05-14.71-3.94-28.18-11.62-40.4ZM1204.48,927.17c.12-2.49.33-4.95.59-7.37.71-6.39,1.8-12.62,2.68-18.84,4.9-33.7,11.48-67.11,22.08-99.6,1.19-3.64,1.12-7.75,1.86-13.6-6.94,1.19-11.76,1.97-16.56,2.87-25.24,4.8-50.46,9.74-75.74,14.48-71.35,15.71-169.09,26.05-269.82,2.38-25.69-4.8-50.41-11.79-74.74-19.3-.79.5-1.47,1-2.05,1.52,17.78,54.88,46.03,167.39,29.21,290.83,21.51-1.17,42.21-5.56,62.06-13.16,15.66-6.18,35.32-25.74,58.96-58.7,22.37-30.94,35.81-46.34,40.29-46.23,2.04.03,3.85,1.52,5.4,4.42,29-52.03,59.82-77.67,92.48-76.91,26.55.62,46.58,17.23,60.11,49.82,11.62,27.64,16.95,61.87,16,102.7-.48,20.8-5.63,40.52-15.47,59.08-11.08,19.75-23.57,29.47-37.45,29.16-15.52-.36-38.62-8.46-69.3-24.29-18.37-9.84-34.11-20.11-47.2-30.82l-31.04,61.63,11.55-80.05c-3.57-3.95-6.78-7.92-9.7-11.98-24.6,39.47-41.11,63.58-49.48,72.37-28.04,30.8-70.26,48.84-107.12,50.7v.02c-.47.02-.95.03-1.42.05-.79,3.87-1.62,7.72-2.5,11.57-1.73,7.68-3.59,15.35-5.58,22.98-1.14,4.47-2.59,8.96-2.95,13.52-.16,2.09.12,4.21.52,6.6.24-.05.48-.1.72-.16.66-.14,1.35-.29,2.09-.43,7.7-1.59,19.11-3.82,33.44-6.27,1-.17,2.02-.35,3.06-.52,4.28-.73,8.84-1.47,13.6-2.21.95-.16,1.9-.29,2.85-.45,1.19-.19,2.42-.36,3.64-.55.76-.12,1.52-.22,2.28-.35,7.06-1.05,14.54-2.11,22.39-3.12,2.49-.33,5.01-.66,7.56-.97,5.35-.66,10.86-1.31,16.52-1.95,3.76-.4,7.58-.81,11.46-1.19,2.31-.24,4.64-.47,7.01-.69,1.42-.14,2.85-.28,4.28-.4,4.8-.43,9.67-.85,14.61-1.24,2.87-.22,5.77-.43,8.68-.64,6.39-.45,12.88-.85,19.46-1.19,1.85-.1,3.69-.19,5.54-.28,1.64-.09,3.28-.16,4.92-.22,3.95-.16,7.94-.31,11.96-.43,1.9-.07,3.78-.12,5.7-.16,1.24-.03,2.5-.05,3.76-.09,1.61-.03,3.19-.07,4.8-.09,1.59-.03,3.19-.05,4.8-.07,73.93-.78,154.03,7.18,219.77,34.91,6.49-5.63,3.06-10.74,1.66-15.88-11.69-42.66-18.78-86.17-22.31-130.26-.17-2.11-.88-4.2-1.33-6.27.45-.21.9-.41,1.36-.62.1-.05.21-.1.33-.16-.1-.78-.21-1.57-.31-2.37v-.03c-5.63-45.58-7.04-96.06-.1-148.3,0-1.09.03-2.16.09-3.23ZM1204.48,927.17c.12-2.49.33-4.95.59-7.37.71-6.39,1.8-12.62,2.68-18.84,4.9-33.7,11.48-67.11,22.08-99.6,1.19-3.64,1.12-7.75,1.86-13.6-6.94,1.19-11.76,1.97-16.56,2.87-25.24,4.8-50.46,9.74-75.74,14.48-71.35,15.71-169.09,26.05-269.82,2.38-25.69-4.8-50.41-11.79-74.74-19.3-.79.5-1.47,1-2.05,1.52,17.78,54.88,46.03,167.39,29.21,290.83,21.51-1.17,42.21-5.56,62.06-13.16,15.66-6.18,35.32-25.74,58.96-58.7,22.37-30.94,35.81-46.34,40.29-46.23,2.04.03,3.85,1.52,5.4,4.42,29-52.03,59.82-77.67,92.48-76.91,26.55.62,46.58,17.23,60.11,49.82,11.62,27.64,16.95,61.87,16,102.7-.48,20.8-5.63,40.52-15.47,59.08-11.08,19.75-23.57,29.47-37.45,29.16-15.52-.36-38.62-8.46-69.3-24.29-18.37-9.84-34.11-20.11-47.2-30.82l-31.04,61.63,11.55-80.05c-3.57-3.95-6.78-7.92-9.7-11.98-24.6,39.47-41.11,63.58-49.48,72.37-28.04,30.8-70.26,48.84-107.12,50.7v.02c-.47.02-.95.03-1.42.05-.79,3.87-1.62,7.72-2.5,11.57-1.73,7.68-3.59,15.35-5.58,22.98-1.14,4.47-2.59,8.96-2.95,13.52-.16,2.09.12,4.21.52,6.6.24-.05.48-.1.72-.16.66-.14,1.35-.29,2.09-.43,7.7-1.59,19.11-3.82,33.44-6.27,1-.17,2.02-.35,3.06-.52,4.28-.73,8.84-1.47,13.6-2.21.95-.16,1.9-.29,2.85-.45,1.19-.19,2.42-.36,3.64-.55.76-.12,1.52-.22,2.28-.35,7.06-1.05,14.54-2.11,22.39-3.12,2.49-.33,5.01-.66,7.56-.97,5.35-.66,10.86-1.31,16.52-1.95,3.76-.4,7.58-.81,11.46-1.19,2.31-.24,4.64-.47,7.01-.69,1.42-.14,2.85-.28,4.28-.4,4.8-.43,9.67-.85,14.61-1.24,2.87-.22,5.77-.43,8.68-.64,6.39-.45,12.88-.85,19.46-1.19,1.85-.1,3.69-.19,5.54-.28,1.64-.09,3.28-.16,4.92-.22,3.95-.16,7.94-.31,11.96-.43,1.9-.07,3.78-.12,5.7-.16,1.24-.03,2.5-.05,3.76-.09,1.61-.03,3.19-.07,4.8-.09,1.59-.03,3.19-.05,4.8-.07,73.93-.78,154.03,7.18,219.77,34.91,6.49-5.63,3.06-10.74,1.66-15.88-11.69-42.66-18.78-86.17-22.31-130.26-.17-2.11-.88-4.2-1.33-6.27.45-.21.9-.41,1.36-.62.1-.05.21-.1.33-.16-.1-.78-.21-1.57-.31-2.37v-.03c-5.63-45.58-7.04-96.06-.1-148.3,0-1.09.03-2.16.09-3.23ZM1095.03,1033.07c-.05-14.71-3.94-28.18-11.62-40.4-7.68-12.22-16.02-18.46-25-18.66-17.14-.41-30.73,3.78-40.73,12.53,17.99,17.16,28.17,26.6,30.59,28.3,13.26,9.7,28.83,15.78,46.75,18.23ZM1010.23,0C673.47,334.46,336.75,668.85,0,1003.29c334.44,336.74,668.86,673.49,1003.27,1010.25,336.75-334.44,673.49-668.88,1010.23-1003.27C1679.06,673.51,1344.67,336.75,1010.23,0ZM1010.14,16.11c137.47,138.42,273.69,275.57,410.89,413.7-4.07,4.61-7.23,8.98-11.2,12.41-46.73,40.29-100.15,65.28-161.97,72.6-33.75,4.02-66.26-.16-98.18-10.15-11.07-3.45-21.74-9.27-31.46-15.68-26.09-17.16-44.27-39.78-52.43-71.16-5.61-21.63-7.75-42.09.14-62.95,4.49-11.83,10.22-22.93,22.08-29.61,15.16-8.51,29.97-7.94,44.23,1.12,13.38,8.49,17.18,22.15,17.16,37.08-.07,14.8-6.22,27.74-12.91,40.47-1.76,3.28-3.59,6.61-5.08,9.39-.35,9.18,5.87,12.36,12.12,14.92,32.72,13.26,63.98,9.29,91.86-11.45,37.93-28.11,46.63-74.55,34.7-107.95-10.12-28.45-29.94-47.2-57.32-58.13-9.25-3.71-19.44-6.58-29.3-6.92-10.67-.36-21.51,2.4-32.2,4.3-5.25.93-10.31,2.97-16.88,4.9-.78-6.7-1.76-12-1.97-17.32-1.12-32.85-13.09-60.86-35.34-85.34-20.73-22.81-45.87-37.38-74.86-46.58-9.98-3.18-18.44,1.17-26.69,4.37-39.41,15.26-68.52,41.88-84.54,81.56-7.41,18.37-12.1,37.51-13.47,59.34-5.47-1.35-10.6-2.19-15.4-3.9-31.49-10.96-60.68-6.94-88.91,10.96-32.99,20.92-43.73,69.38-33.37,102.12,7.91,25.05,22.08,45.2,44.59,58.89,24.22,14.66,50.1,18.54,77.24,9.27,4.83-1.66,8.89-5.4,14.4-8.8-3.12-5.87-4.9-10.62-7.82-14.43-9.18-11.96-14.76-25.17-16.38-40.26-2.23-20.91,13.52-44.21,33.98-48.48,10.96-2.26,20.79,1.52,29.23,8.6,21.94,18.33,29.25,42.66,26.86,70.02-4.01,46.73-31.2,77.29-70.8,98.8-28.23,15.23-58.61,19.09-90.17,19.68-33.39.62-65.34-5.28-96.23-16.88-36.88-13.83-70.58-33.49-100.29-59.53-2.61-2.33-4.28-5.75-6.84-9.27,137.72-136.75,274.53-272.65,412.53-409.71ZM1115.8,577.02c-2.26,10.88-8.94,12.83-15.61,13.52-18.8,1.99-37.58,3.95-56.47,4.85-39.47,1.8-78.91-.43-118.12-5.14-8.17-.95-18.09.1-22.81-11.76,3.54-3.14,6.77-6.94,10.77-9.53,31.92-20.53,61.46-43.94,86.79-72.41,2.69-3.02,6.23-5.32,10.43-8.86,4.39,3.56,8.84,6.01,11.79,9.69,20.2,25.21,45.37,44.63,71.7,62.81,7.53,5.2,14.4,11.24,21.53,16.83ZM428.67,1415.64c-10.48-5.3-402.63-398.94-410.85-411.52,4.09-8.82,394.87-397.96,407.45-405.62,10.05,2.26,15.88,10.55,21.37,18.09,17.64,24.03,35.08,48.29,46.51,76.2,13.03,31.96,20.06,64.95,19.61,99.49-.09,6.32,0,12.59.28,18.89,1.47,34.56-9.34,65.78-29.14,93.3-17.07,23.67-40.73,39.28-69.37,47.32-19.99,5.61-39.55,7.44-59.53,1.23-17.83-5.54-29.99-16.59-33.98-35.37-4.37-20.61,11.48-43.37,32.44-46.66,18.2-2.9,35.01.95,50.91,10.06,21.32,12.22,25.74,10.31,31.32-13.91,13.07-56.3-27.45-113.89-87.03-114.69-54.3-.72-105.45,42.59-98.46,106.76.69,6.65,1.52,13.28,2.35,20.53-8.17,1.55-16.3,3.38-24.48,4.68-46.94,7.37-82.73,31.87-107.31,71.99-7.6,12.38-12.05,26.74-17.2,40.45-1.47,4.02-1.28,9.29-.16,13.5,10.13,37.62,28.64,69.87,61.41,92.48,20.85,14.35,44.32,21.75,69.09,25.64,4.51.72,9.06,1.35,14.67,2.18-1.26,7.92-2.87,15.18-3.5,22.51-1.05,11.69-2.69,23.48-1.99,35.08,1.69,27.62,15.14,48.55,37.17,65.47,13.45,10.34,27.76,12.59,43.42,12.83,27.19.38,52.83-4.68,74.46-22.37,27.86-22.86,45.89-66.28,30.18-107.12-4.42-11.48-9.15-13.21-20.16-6.47-14.93,9.17-30.59,15.83-48.5,15.62-17.42-.19-32.63-9.6-38.43-23.84-5.92-14.48-1.71-33.41,11-45.11,19.16-17.7,42.52-23.76,67.81-20.41,48.63,6.51,78.5,36.62,97.75,79.66,18.96,42.44,18.46,86.41,11.27,131.03-8.3,51.45-32.91,94.88-65.85,134.12-4.42,5.3-10.01,9.68-14.55,14ZM566.23,916c5.54-9.36,5.71-9.27,14.8-12.15,7.41,2.92,8.63,10.01,9.63,16.44,6.7,43.32,7.92,86.86,3.59,130.52-1.61,16.28-3.9,32.51-5.9,48.74-.6,4.73-1.43,9.48-6.89,10.89-6.04,1.57-9.17-2.88-12.33-6.84-1.02-1.31-1.73-2.9-2.47-4.42-14.02-29.11-33.34-54.19-56.8-76.39-16.11-15.3-16.11-15.61-.33-31.54,22.32-22.53,40.62-48.03,56.7-75.24ZM1003.63,1996.96c-3.56-2.85-7.29-5.33-10.39-8.44-129.6-130.4-259.17-260.88-388.68-391.33-2.62-2.66-4.92-5.63-7.27-8.36,2.14-9.22,9.18-13.71,15.35-18.33,44.28-32.72,92.5-56.56,147.54-64.69,50.93-7.56,98.75.28,142.24,29.26,47.25,31.47,62.12,91.71,47.8,130.43-4.18,11.38-10.44,21.15-19.8,28.66-25.53,20.51-54.71,4.94-61.06-21.17-4.85-19.72-.43-38.33,8.61-56.06.95-1.9,2.12-3.66,3.04-5.54,4.85-10,3.18-15.57-6.91-20.39-13.95-6.66-28.85-9.75-44.16-8.1-47.56,5.14-82.42,36.91-88.77,83.09-8.34,60.49,32.3,101.74,87.74,107.24,12.21,1.21,24.86-2.5,37.31-4.06,3.68-.43,7.29-1.28,12.05-2.11,1,6.49,2.35,12.17,2.8,17.94,3.14,40.76,20.92,73.41,52.67,99.2,17.32,14.05,36.65,23.7,57.68,30.13,5.32,1.62,11.76,1.93,17.18.64,31.11-7.48,56.64-24.36,78.71-47.36,23.93-24.91,33.87-55.52,38.55-88.62.31-2.02.48-4.06.93-7.58,4.97,1.4,9.24,2.56,13.54,3.8,30.44,8.65,59.35,5.52,85.65-12.5,64.43-44.01,48.06-124.56,1.54-156-27.59-18.61-56.95-20.68-87.96-13.64-5.06,1.12-9.58,4.59-15.9,7.77,4.52,9.63,8.55,18.15,12.55,26.69,6.8,14.59,8.25,29.63,5.13,45.47-5.96,30.35-33.39,37.77-57.13,23.81-20.51-12.02-29.04-31.52-29.68-53.92-1.52-48.79,21.53-84.7,62.58-108.92,36.98-21.75,77.53-27.92,120.23-25.4,63.77,3.71,117.24,30.3,165.49,69.94,3.5,2.88,6.46,6.42,11.05,11.03-137.23,136.3-273.2,271.32-410.23,407.38ZM896.7,1430.06c26.17-18.61,193.62-11.58,215.92,8.43,1.05,6.77-3.75,10.08-8.6,12.38-35.03,16.37-65.21,39.54-93.4,65.6-1.19,1.09-2.87,1.59-4.68,2.52-2.26-1.05-5.09-1.55-6.58-3.23-29.11-32.58-64.31-57.37-100.93-80.52-1.04-.67-1.05-2.99-1.74-5.18ZM672.11,949.56c-.35.07-.69.03-.78,0-6.82-37.55-12.95-75.2-20.61-112.51-7.82-38.02-22.72-73.75-38.52-109.07-15.66-35.03-34.34-68.52-57.2-99.25-22.63-30.47-47.2-59.51-71.39-89.76,19.15-18.99,37.51-37.26,57.33-56.92,6.35,4.85,13.02,9.01,18.61,14.31,47.34,44.82,99.22,83.23,158.47,110.75,29.69,13.78,59.8,27.33,90.95,37.01,35.22,10.93,71.02,20.99,108.07,24.6,8.25.79,16.44,2.12,26,3.49l130.12-1.43c-.09-.1-.19-.21-.28-.31,76.93-11.1,149.21-28.38,217.82-59.73,68.28-31.14,129.52-72.65,184.78-121.85,10.38,3.95,49.5,41.93,58.37,56.3-7.34,8.86-15.19,17.99-22.7,27.4-17.3,21.7-35.01,43.02-51.43,65.34-25.24,34.3-46.73,71.15-63.36,110.2-20.7,48.77-37.69,99.04-44.7,152.03-2.12,16.02-3.9,32.09-6.18,51.07l-4.51,124.47c9.31,50.31,13.67,99.87,31.16,146.52,17.61,46.91,37.69,92.62,63.88,135.51,25.95,42.49,58.44,79.83,91.05,116.33-4.51,9.77-42.07,48.39-57.13,58.72-3.69-2.52-8.46-4.97-12.17-8.56-56.63-54.54-121.14-97.23-192.72-129.43-49.79-22.39-101.88-37.05-155.95-44.56-8.22-1.16-16.47-1.9-25.17-2.66h-.03l-9.72.48h-140.53c-2.92.54-5.77.98-8.65,1.26-47.01,4.42-92.92,14-137.63,29.18-35.51,12.03-69.8,26.97-102.7,44.8-41,22.27-80.3,47.01-114.46,79.38-9.82,9.32-19.68,19.56-33.73,24.72-17.56-17.68-34.86-35.13-51.95-52.31,1.73-10.17,7.79-16.57,13.74-23.08,54.47-59.42,98.25-125.7,128.5-200.61,16.28-40.29,28.19-81.8,34.63-124.84,2.75-18.13,5.56-36.27,8.46-55.25M1494.19,982.4c5.02,7.16,11.64,13.21,17.57,19.73,7.61,8.29,7.89,11.2.41,19.09-26.43,27.88-48.34,59.08-68.21,91.81-1.64,2.78-3.9,5.23-5.82,7.8-7.77-1.02-9.2-5.2-9.68-10.1-2.76-26.72-7.98-53.45-7.77-80.12.31-35.1.45-70.61,8.91-105.16,1.59-6.44,2.24-13.59,12.05-16.09,2.49,2.5,6.08,5.21,8.49,8.72,14.78,21.39,29.04,43.09,44.04,64.31ZM1586.14,1415.81c-10.65-6.11-18.94-15.8-26.21-25.79-24.34-33.39-40.55-70.61-49.12-111.04-8.72-41.09-7.79-81.88,5.06-122.09,9.43-29.31,26.45-54.19,51.29-71.73,32.15-22.62,67.59-31.49,105.74-13.24,11.55,5.52,19.87,14.45,25.86,25.07,8.98,15.92-.38,39.48-18.2,47.89-13,6.16-26.69,7.98-40.5,3.95-11.29-3.25-22.27-7.54-33.16-11.95-12.67-5.11-18.89-2.56-22.6,10.39-10.63,37.03-5.2,71.37,20.94,100.05,28,30.64,69.32,41.92,110.73,24.57,32.85-13.73,54.71-38.05,57.78-74.67,1.17-14.21-3.19-28.95-5.28-43.47-.6-4.06-2.04-8.05-3.25-12.71,9.62-1.76,18.46-3.85,27.45-4.97,48.72-6.2,83.47-32.65,107.28-74.56,4.75-8.34,8.84-17.21,12.31-26.17,4.44-11.48,2.61-22.96-1.02-34.55-17.28-55.28-52.79-91.41-109.59-105.54-10.96-2.68-21.94-5.35-33.15-8.11,1.97-16.28,4.99-31.16,5.25-46.1.38-22.13-7.03-42.11-21.65-59.03-14.93-17.28-32.39-30.73-55.68-34.27-27.86-4.25-53.09,1.66-76.13,18.68-37.6,27.71-43.85,65.31-35.94,107.88.38,2.02,1.31,3.99,2.05,5.97,5.37,13.97,9.55,15.31,22.18,7.39,18.59-11.64,37.93-19.42,60.77-15.75,14.83,2.38,24.96,9.1,30.02,23.24,5.11,14.33,2.47,27.21-7.23,38.9-14.66,17.63-34.86,22.53-56.19,24.43-45.54,4.07-93.19-31.04-111.47-72.47-11.9-26.93-16.92-55.04-18.15-84.32-2.3-53.35,10.91-102.36,39.52-147.23,10.15-15.88,21.56-30.95,32.65-46.2,2.37-3.3,5.77-5.89,8.49-8.63,10.03,4.87,399.58,396.49,408.37,410.23-4.89,10.01-397.82,400.34-409.23,405.95ZM1139.4,805.11c-71.35,15.71-169.09,26.05-269.82,2.38-25.69-4.8-50.41-11.79-74.74-19.3-.79.5-1.47,1-2.05,1.52,17.78,54.88,46.03,167.39,29.21,290.83,21.51-1.17,42.21-5.56,62.06-13.16,15.66-6.18,35.32-25.74,58.96-58.7,22.37-30.94,35.81-46.34,40.29-46.23,2.04.03,3.85,1.52,5.4,4.42,29-52.03,59.82-77.67,92.48-76.91,26.55.62,46.58,17.23,60.11,49.82,11.62,27.64,16.95,61.87,16,102.7-.48,20.8-5.63,40.52-15.47,59.08-11.08,19.75-23.57,29.47-37.45,29.16-15.52-.36-38.62-8.46-69.3-24.29-18.37-9.84-34.11-20.11-47.2-30.82l-31.04,61.63,11.55-80.05c-3.57-3.95-6.78-7.92-9.7-11.98-24.6,39.47-41.11,63.58-49.48,72.37-28.04,30.8-70.26,48.84-107.12,50.7v.02c-.47.02-.95.03-1.42.05-.79,3.87-1.62,7.72-2.5,11.57-1.73,7.68-3.59,15.35-5.58,22.98-1.14,4.47-2.59,8.96-2.95,13.52-.16,2.09.12,4.21.52,6.6.24-.05.48-.1.72-.16.66-.14,1.35-.29,2.09-.43,7.7-1.59,19.11-3.82,33.44-6.27,1-.17,2.02-.35,3.06-.52,4.28-.73,8.84-1.47,13.6-2.21.95-.16,1.9-.29,2.85-.45,1.19-.19,2.42-.36,3.64-.55.76-.12,1.52-.22,2.28-.35,7.06-1.05,14.54-2.11,22.39-3.12,2.49-.33,5.01-.66,7.56-.97,5.35-.66,10.86-1.31,16.52-1.95,3.76-.4,7.58-.81,11.46-1.19,2.31-.24,4.64-.47,7.01-.69,1.42-.14,2.85-.28,4.28-.4,4.8-.43,9.67-.85,14.61-1.24,2.87-.22,5.77-.43,8.68-.64,6.39-.45,12.88-.85,19.46-1.19,1.85-.1,3.69-.19,5.54-.28,1.64-.09,3.28-.16,4.92-.22,3.95-.16,7.94-.31,11.96-.43,1.9-.07,3.78-.12,5.7-.16,1.24-.03,2.5-.05,3.76-.09,1.61-.03,3.19-.07,4.8-.09,1.59-.03,3.19-.05,4.8-.07,73.93-.78,154.03,7.18,219.77,34.91,6.49-5.63,3.06-10.74,1.66-15.88-11.69-42.66-18.78-86.17-22.31-130.26-.17-2.11-.88-4.2-1.33-6.27.45-.21.9-.41,1.36-.62.1-.05.21-.1.33-.16-.1-.78-.21-1.57-.31-2.37v-.03c-5.63-45.58-7.04-96.06-.1-148.3,0-1.09.03-2.16.09-3.23.12-2.49.33-4.95.59-7.37.71-6.39,1.8-12.62,2.68-18.84,4.9-33.7,11.48-67.11,22.08-99.6,1.19-3.64,1.12-7.75,1.86-13.6-6.94,1.19-11.76,1.97-16.56,2.87-25.24,4.8-50.46,9.74-75.74,14.48ZM1095.03,1033.07c-.05-14.71-3.94-28.18-11.62-40.4-7.68-12.22-16.02-18.46-25-18.66-17.14-.41-30.73,3.78-40.73,12.53,17.99,17.16,28.17,26.6,30.59,28.3,13.26,9.7,28.83,15.78,46.75,18.23ZM1083.41,992.67c-7.68-12.22-16.02-18.46-25-18.66-17.14-.41-30.73,3.78-40.73,12.53,17.99,17.16,28.17,26.6,30.59,28.3,13.26,9.7,28.83,15.78,46.75,18.23-.05-14.71-3.94-28.18-11.62-40.4ZM1204.48,927.17c.12-2.49.33-4.95.59-7.37.71-6.39,1.8-12.62,2.68-18.84,4.9-33.7,11.48-67.11,22.08-99.6,1.19-3.64,1.12-7.75,1.86-13.6-6.94,1.19-11.76,1.97-16.56,2.87-25.24,4.8-50.46,9.74-75.74,14.48-71.35,15.71-169.09,26.05-269.82,2.38-25.69-4.8-50.41-11.79-74.74-19.3-.79.5-1.47,1-2.05,1.52,17.78,54.88,46.03,167.39,29.21,290.83,21.51-1.17,42.21-5.56,62.06-13.16,15.66-6.18,35.32-25.74,58.96-58.7,22.37-30.94,35.81-46.34,40.29-46.23,2.04.03,3.85,1.52,5.4,4.42,29-52.03,59.82-77.67,92.48-76.91,26.55.62,46.58,17.23,60.11,49.82,11.62,27.64,16.95,61.87,16,102.7-.48,20.8-5.63,40.52-15.47,59.08-11.08,19.75-23.57,29.47-37.45,29.16-15.52-.36-38.62-8.46-69.3-24.29-18.37-9.84-34.11-20.11-47.2-30.82l-31.04,61.63,11.55-80.05c-3.57-3.95-6.78-7.92-9.7-11.98-24.6,39.47-41.11,63.58-49.48,72.37-28.04,30.8-70.26,48.84-107.12,50.7v.02c-.47.02-.95.03-1.42.05-.79,3.87-1.62,7.72-2.5,11.57-1.73,7.68-3.59,15.35-5.58,22.98-1.14,4.47-2.59,8.96-2.95,13.52-.16,2.09.12,4.21.52,6.6.24-.05.48-.1.72-.16.66-.14,1.35-.29,2.09-.43,7.7-1.59,19.11-3.82,33.44-6.27,1-.17,2.02-.35,3.06-.52,4.28-.73,8.84-1.47,13.6-2.21.95-.16,1.9-.29,2.85-.45,1.19-.19,2.42-.36,3.64-.55.76-.12,1.52-.22,2.28-.35,7.06-1.05,14.54-2.11,22.39-3.12,2.49-.33,5.01-.66,7.56-.97,5.35-.66,10.86-1.31,16.52-1.95,3.76-.4,7.58-.81,11.46-1.19,2.31-.24,4.64-.47,7.01-.69,1.42-.14,2.85-.28,4.28-.4,4.8-.43,9.67-.85,14.61-1.24,2.87-.22,5.77-.43,8.68-.64,6.39-.45,12.88-.85,19.46-1.19,1.85-.1,3.69-.19,5.54-.28,1.64-.09,3.28-.16,4.92-.22,3.95-.16,7.94-.31,11.96-.43,1.9-.07,3.78-.12,5.7-.16,1.24-.03,2.5-.05,3.76-.09,1.61-.03,3.19-.07,4.8-.09,1.59-.03,3.19-.05,4.8-.07,73.93-.78,154.03,7.18,219.77,34.91,6.49-5.63,3.06-10.74,1.66-15.88-11.69-42.66-18.78-86.17-22.31-130.26-.17-2.11-.88-4.2-1.33-6.27.45-.21.9-.41,1.36-.62.1-.05.21-.1.33-.16-.1-.78-.21-1.57-.31-2.37v-.03c-5.63-45.58-7.04-96.06-.1-148.3,0-1.09.03-2.16.09-3.23ZM1204.48,927.17c.12-2.49.33-4.95.59-7.37.71-6.39,1.8-12.62,2.68-18.84,4.9-33.7,11.48-67.11,22.08-99.6,1.19-3.64,1.12-7.75,1.86-13.6-6.94,1.19-11.76,1.97-16.56,2.87-25.24,4.8-50.46,9.74-75.74,14.48-71.35,15.71-169.09,26.05-269.82,2.38-25.69-4.8-50.41-11.79-74.74-19.3-.79.5-1.47,1-2.05,1.52,17.78,54.88,46.03,167.39,29.21,290.83,21.51-1.17,42.21-5.56,62.06-13.16,15.66-6.18,35.32-25.74,58.96-58.7,22.37-30.94,35.81-46.34,40.29-46.23,2.04.03,3.85,1.52,5.4,4.42,29-52.03,59.82-77.67,92.48-76.91,26.55.62,46.58,17.23,60.11,49.82,11.62,27.64,16.95,61.87,16,102.7-.48,20.8-5.63,40.52-15.47,59.08-11.08,19.75-23.57,29.47-37.45,29.16-15.52-.36-38.62-8.46-69.3-24.29-18.37-9.84-34.11-20.11-47.2-30.82l-31.04,61.63,11.55-80.05c-3.57-3.95-6.78-7.92-9.7-11.98-24.6,39.47-41.11,63.58-49.48,72.37-28.04,30.8-70.26,48.84-107.12,50.7v.02c-.47.02-.95.03-1.42.05-.79,3.87-1.62,7.72-2.5,11.57-1.73,7.68-3.59,15.35-5.58,22.98-1.14,4.47-2.59,8.96-2.95,13.52-.16,2.09.12,4.21.52,6.6.24-.05.48-.1.72-.16.66-.14,1.35-.29,2.09-.43,7.7-1.59,19.11-3.82,33.44-6.27,1-.17,2.02-.35,3.06-.52,4.28-.73,8.84-1.47,13.6-2.21.95-.16,1.9-.29,2.85-.45,1.19-.19,2.42-.36,3.64-.55.76-.12,1.52-.22,2.28-.35,7.06-1.05,14.54-2.11,22.39-3.12,2.49-.33,5.01-.66,7.56-.97,5.35-.66,10.86-1.31,16.52-1.95,3.76-.4,7.58-.81,11.46-1.19,2.31-.24,4.64-.47,7.01-.69,1.42-.14,2.85-.28,4.28-.4,4.8-.43,9.67-.85,14.61-1.24,2.87-.22,5.77-.43,8.68-.64,6.39-.45,12.88-.85,19.46-1.19,1.85-.1,3.69-.19,5.54-.28,1.64-.09,3.28-.16,4.92-.22,3.95-.16,7.94-.31,11.96-.43,1.9-.07,3.78-.12,5.7-.16,1.24-.03,2.5-.05,3.76-.09,1.61-.03,3.19-.07,4.8-.09,1.59-.03,3.19-.05,4.8-.07,73.93-.78,154.03,7.18,219.77,34.91,6.49-5.63,3.06-10.74,1.66-15.88-11.69-42.66-18.78-86.17-22.31-130.26-.17-2.11-.88-4.2-1.33-6.27.45-.21.9-.41,1.36-.62.1-.05.21-.1.33-.16-.1-.78-.21-1.57-.31-2.37v-.03c-5.63-45.58-7.04-96.06-.1-148.3,0-1.09.03-2.16.09-3.23ZM1083.41,992.67c-7.68-12.22-16.02-18.46-25-18.66-17.14-.41-30.73,3.78-40.73,12.53,17.99,17.16,28.17,26.6,30.59,28.3,13.26,9.7,28.83,15.78,46.75,18.23-.05-14.71-3.94-28.18-11.62-40.4ZM1083.41,992.67c-7.68-12.22-16.02-18.46-25-18.66-17.14-.41-30.73,3.78-40.73,12.53,17.99,17.16,28.17,26.6,30.59,28.3,13.26,9.7,28.83,15.78,46.75,18.23-.05-14.71-3.94-28.18-11.62-40.4ZM1204.48,927.17c.12-2.49.33-4.95.59-7.37.71-6.39,1.8-12.62,2.68-18.84,4.9-33.7,11.48-67.11,22.08-99.6,1.19-3.64,1.12-7.75,1.86-13.6-6.94,1.19-11.76,1.97-16.56,2.87-25.24,4.8-50.46,9.74-75.74,14.48-71.35,15.71-169.09,26.05-269.82,2.38-25.69-4.8-50.41-11.79-74.74-19.3-.79.5-1.47,1-2.05,1.52,17.78,54.88,46.03,167.39,29.21,290.83,21.51-1.17,42.21-5.56,62.06-13.16,15.66-6.18,35.32-25.74,58.96-58.7,22.37-30.94,35.81-46.34,40.29-46.23,2.04.03,3.85,1.52,5.4,4.42,29-52.03,59.82-77.67,92.48-76.91,26.55.62,46.58,17.23,60.11,49.82,11.62,27.64,16.95,61.87,16,102.7-.48,20.8-5.63,40.52-15.47,59.08-11.08,19.75-23.57,29.47-37.45,29.16-15.52-.36-38.62-8.46-69.3-24.29-18.37-9.84-34.11-20.11-47.2-30.82l-31.04,61.63,11.55-80.05c-3.57-3.95-6.78-7.92-9.7-11.98-24.6,39.47-41.11,63.58-49.48,72.37-28.04,30.8-70.26,48.84-107.12,50.7v.02c-.47.02-.95.03-1.42.05-.79,3.87-1.62,7.72-2.5,11.57-1.73,7.68-3.59,15.35-5.58,22.98-1.14,4.47-2.59,8.96-2.95,13.52-.16,2.09.12,4.21.52,6.6.24-.05.48-.1.72-.16.66-.14,1.35-.29,2.09-.43,7.7-1.59,19.11-3.82,33.44-6.27,1-.17,2.02-.35,3.06-.52,4.28-.73,8.84-1.47,13.6-2.21.95-.16,1.9-.29,2.85-.45,1.19-.19,2.42-.36,3.64-.55.76-.12,1.52-.22,2.28-.35,7.06-1.05,14.54-2.11,22.39-3.12,2.49-.33,5.01-.66,7.56-.97,5.35-.66,10.86-1.31,16.52-1.95,3.76-.4,7.58-.81,11.46-1.19,2.31-.24,4.64-.47,7.01-.69,1.42-.14,2.85-.28,4.28-.4,4.8-.43,9.67-.85,14.61-1.24,2.87-.22,5.77-.43,8.68-.64,6.39-.45,12.88-.85,19.46-1.19,1.85-.1,3.69-.19,5.54-.28,1.64-.09,3.28-.16,4.92-.22,3.95-.16,7.94-.31,11.96-.43,1.9-.07,3.78-.12,5.7-.16,1.24-.03,2.5-.05,3.76-.09,1.61-.03,3.19-.07,4.8-.09,1.59-.03,3.19-.05,4.8-.07,73.93-.78,154.03,7.18,219.77,34.91,6.49-5.63,3.06-10.74,1.66-15.88-11.69-42.66-18.78-86.17-22.31-130.26-.17-2.11-.88-4.2-1.33-6.27.45-.21.9-.41,1.36-.62.1-.05.21-.1.33-.16-.1-.78-.21-1.57-.31-2.37v-.03c-5.63-45.58-7.04-96.06-.1-148.3,0-1.09.03-2.16.09-3.23ZM1204.48,927.17c.12-2.49.33-4.95.59-7.37.71-6.39,1.8-12.62,2.68-18.84,4.9-33.7,11.48-67.11,22.08-99.6,1.19-3.64,1.12-7.75,1.86-13.6-6.94,1.19-11.76,1.97-16.56,2.87-25.24,4.8-50.46,9.74-75.74,14.48-71.35,15.71-169.09,26.05-269.82,2.38-25.69-4.8-50.41-11.79-74.74-19.3-.79.5-1.47,1-2.05,1.52,17.78,54.88,46.03,167.39,29.21,290.83,21.51-1.17,42.21-5.56,62.06-13.16,15.66-6.18,35.32-25.74,58.96-58.7,22.37-30.94,35.81-46.34,40.29-46.23,2.04.03,3.85,1.52,5.4,4.42,29-52.03,59.82-77.67,92.48-76.91,26.55.62,46.58,17.23,60.11,49.82,11.62,27.64,16.95,61.87,16,102.7-.48,20.8-5.63,40.52-15.47,59.08-11.08,19.75-23.57,29.47-37.45,29.16-15.52-.36-38.62-8.46-69.3-24.29-18.37-9.84-34.11-20.11-47.2-30.82l-31.04,61.63,11.55-80.05c-3.57-3.95-6.78-7.92-9.7-11.98-24.6,39.47-41.11,63.58-49.48,72.37-28.04,30.8-70.26,48.84-107.12,50.7v.02c-.47.02-.95.03-1.42.05-.79,3.87-1.62,7.72-2.5,11.57-1.73,7.68-3.59,15.35-5.58,22.98-1.14,4.47-2.59,8.96-2.95,13.52-.16,2.09.12,4.21.52,6.6.24-.05.48-.1.72-.16.66-.14,1.35-.29,2.09-.43,7.7-1.59,19.11-3.82,33.44-6.27,1-.17,2.02-.35,3.06-.52,4.28-.73,8.84-1.47,13.6-2.21.95-.16,1.9-.29,2.85-.45,1.19-.19,2.42-.36,3.64-.55.76-.12,1.52-.22,2.28-.35,7.06-1.05,14.54-2.11,22.39-3.12,2.49-.33,5.01-.66,7.56-.97,5.35-.66,10.86-1.31,16.52-1.95,3.76-.4,7.58-.81,11.46-1.19,2.31-.24,4.64-.47,7.01-.69,1.42-.14,2.85-.28,4.28-.4,4.8-.43,9.67-.85,14.61-1.24,2.87-.22,5.77-.43,8.68-.64,6.39-.45,12.88-.85,19.46-1.19,1.85-.1,3.69-.19,5.54-.28,1.64-.09,3.28-.16,4.92-.22,3.95-.16,7.94-.31,11.96-.43,1.9-.07,3.78-.12,5.7-.16,1.24-.03,2.5-.05,3.76-.09,1.61-.03,3.19-.07,4.8-.09,1.59-.03,3.19-.05,4.8-.07,73.93-.78,154.03,7.18,219.77,34.91,6.49-5.63,3.06-10.74,1.66-15.88-11.69-42.66-18.78-86.17-22.31-130.26-.17-2.11-.88-4.2-1.33-6.27.45-.21.9-.41,1.36-.62.1-.05.21-.1.33-.16-.1-.78-.21-1.57-.31-2.37v-.03c-5.63-45.58-7.04-96.06-.1-148.3,0-1.09.03-2.16.09-3.23ZM1083.41,992.67c-7.68-12.22-16.02-18.46-25-18.66-17.14-.41-30.73,3.78-40.73,12.53,17.99,17.16,28.17,26.6,30.59,28.3,13.26,9.7,28.83,15.78,46.75,18.23-.05-14.71-3.94-28.18-11.62-40.4ZM1083.41,992.67c-7.68-12.22-16.02-18.46-25-18.66-17.14-.41-30.73,3.78-40.73,12.53,17.99,17.16,28.17,26.6,30.59,28.3,13.26,9.7,28.83,15.78,46.75,18.23-.05-14.71-3.94-28.18-11.62-40.4ZM1204.48,927.17c.12-2.49.33-4.95.59-7.37.71-6.39,1.8-12.62,2.68-18.84,4.9-33.7,11.48-67.11,22.08-99.6,1.19-3.64,1.12-7.75,1.86-13.6-6.94,1.19-11.76,1.97-16.56,2.87-25.24,4.8-50.46,9.74-75.74,14.48-71.35,15.71-169.09,26.05-269.82,2.38-25.69-4.8-50.41-11.79-74.74-19.3-.79.5-1.47,1-2.05,1.52,17.78,54.88,46.03,167.39,29.21,290.83,21.51-1.17,42.21-5.56,62.06-13.16,15.66-6.18,35.32-25.74,58.96-58.7,22.37-30.94,35.81-46.34,40.29-46.23,2.04.03,3.85,1.52,5.4,4.42,29-52.03,59.82-77.67,92.48-76.91,26.55.62,46.58,17.23,60.11,49.82,11.62,27.64,16.95,61.87,16,102.7-.48,20.8-5.63,40.52-15.47,59.08-11.08,19.75-23.57,29.47-37.45,29.16-15.52-.36-38.62-8.46-69.3-24.29-18.37-9.84-34.11-20.11-47.2-30.82l-31.04,61.63,11.55-80.05c-3.57-3.95-6.78-7.92-9.7-11.98-24.6,39.47-41.11,63.58-49.48,72.37-28.04,30.8-70.26,48.84-107.12,50.7v.02c-.47.02-.95.03-1.42.05-.79,3.87-1.62,7.72-2.5,11.57-1.73,7.68-3.59,15.35-5.58,22.98-1.14,4.47-2.59,8.96-2.95,13.52-.16,2.09.12,4.21.52,6.6.24-.05.48-.1.72-.16.66-.14,1.35-.29,2.09-.43,7.7-1.59,19.11-3.82,33.44-6.27,1-.17,2.02-.35,3.06-.52,4.28-.73,8.84-1.47,13.6-2.21.95-.16,1.9-.29,2.85-.45,1.19-.19,2.42-.36,3.64-.55.76-.12,1.52-.22,2.28-.35,7.06-1.05,14.54-2.11,22.39-3.12,2.49-.33,5.01-.66,7.56-.97,5.35-.66,10.86-1.31,16.52-1.95,3.76-.4,7.58-.81,11.46-1.19,2.31-.24,4.64-.47,7.01-.69,1.42-.14,2.85-.28,4.28-.4,4.8-.43,9.67-.85,14.61-1.24,2.87-.22,5.77-.43,8.68-.64,6.39-.45,12.88-.85,19.46-1.19,1.85-.1,3.69-.19,5.54-.28,1.64-.09,3.28-.16,4.92-.22,3.95-.16,7.94-.31,11.96-.43,1.9-.07,3.78-.12,5.7-.16,1.24-.03,2.5-.05,3.76-.09,1.61-.03,3.19-.07,4.8-.09,1.59-.03,3.19-.05,4.8-.07,73.93-.78,154.03,7.18,219.77,34.91,6.49-5.63,3.06-10.74,1.66-15.88-11.69-42.66-18.78-86.17-22.31-130.26-.17-2.11-.88-4.2-1.33-6.27.45-.21.9-.41,1.36-.62.1-.05.21-.1.33-.16-.1-.78-.21-1.57-.31-2.37v-.03c-5.63-45.58-7.04-96.06-.1-148.3,0-1.09.03-2.16.09-3.23ZM1204.48,927.17c.12-2.49.33-4.95.59-7.37.71-6.39,1.8-12.62,2.68-18.84,4.9-33.7,11.48-67.11,22.08-99.6,1.19-3.64,1.12-7.75,1.86-13.6-6.94,1.19-11.76,1.97-16.56,2.87-25.24,4.8-50.46,9.74-75.74,14.48-71.35,15.71-169.09,26.05-269.82,2.38-25.69-4.8-50.41-11.79-74.74-19.3-.79.5-1.47,1-2.05,1.52,17.78,54.88,46.03,167.39,29.21,290.83,21.51-1.17,42.21-5.56,62.06-13.16,15.66-6.18,35.32-25.74,58.96-58.7,22.37-30.94,35.81-46.34,40.29-46.23,2.04.03,3.85,1.52,5.4,4.42,29-52.03,59.82-77.67,92.48-76.91,26.55.62,46.58,17.23,60.11,49.82,11.62,27.64,16.95,61.87,16,102.7-.48,20.8-5.63,40.52-15.47,59.08-11.08,19.75-23.57,29.47-37.45,29.16-15.52-.36-38.62-8.46-69.3-24.29-18.37-9.84-34.11-20.11-47.2-30.82l-31.04,61.63,11.55-80.05c-3.57-3.95-6.78-7.92-9.7-11.98-24.6,39.47-41.11,63.58-49.48,72.37-28.04,30.8-70.26,48.84-107.12,50.7v.02c-.47.02-.95.03-1.42.05-.79,3.87-1.62,7.72-2.5,11.57-1.73,7.68-3.59,15.35-5.58,22.98-1.14,4.47-2.59,8.96-2.95,13.52-.16,2.09.12,4.21.52,6.6.24-.05.48-.1.72-.16.66-.14,1.35-.29,2.09-.43,7.7-1.59,19.11-3.82,33.44-6.27,1-.17,2.02-.35,3.06-.52,4.28-.73,8.84-1.47,13.6-2.21.95-.16,1.9-.29,2.85-.45,1.19-.19,2.42-.36,3.64-.55.76-.12,1.52-.22,2.28-.35,7.06-1.05,14.54-2.11,22.39-3.12,2.49-.33,5.01-.66,7.56-.97,5.35-.66,10.86-1.31,16.52-1.95,3.76-.4,7.58-.81,11.46-1.19,2.31-.24,4.64-.47,7.01-.69,1.42-.14,2.85-.28,4.28-.4,4.8-.43,9.67-.85,14.61-1.24,2.87-.22,5.77-.43,8.68-.64,6.39-.45,12.88-.85,19.46-1.19,1.85-.1,3.69-.19,5.54-.28,1.64-.09,3.28-.16,4.92-.22,3.95-.16,7.94-.31,11.96-.43,1.9-.07,3.78-.12,5.7-.16,1.24-.03,2.5-.05,3.76-.09,1.61-.03,3.19-.07,4.8-.09,1.59-.03,3.19-.05,4.8-.07,73.93-.78,154.03,7.18,219.77,34.91,6.49-5.63,3.06-10.74,1.66-15.88-11.69-42.66-18.78-86.17-22.31-130.26-.17-2.11-.88-4.2-1.33-6.27.45-.21.9-.41,1.36-.62.1-.05.21-.1.33-.16-.1-.78-.21-1.57-.31-2.37v-.03c-5.63-45.58-7.04-96.06-.1-148.3,0-1.09.03-2.16.09-3.23ZM1083.41,992.67c-7.68-12.22-16.02-18.46-25-18.66-17.14-.41-30.73,3.78-40.73,12.53,17.99,17.16,28.17,26.6,30.59,28.3,13.26,9.7,28.83,15.78,46.75,18.23-.05-14.71-3.94-28.18-11.62-40.4ZM1083.41,992.67c-7.68-12.22-16.02-18.46-25-18.66-17.14-.41-30.73,3.78-40.73,12.53,17.99,17.16,28.17,26.6,30.59,28.3,13.26,9.7,28.83,15.78,46.75,18.23-.05-14.71-3.94-28.18-11.62-40.4ZM1204.48,927.17c.12-2.49.33-4.95.59-7.37.71-6.39,1.8-12.62,2.68-18.84,4.9-33.7,11.48-67.11,22.08-99.6,1.19-3.64,1.12-7.75,1.86-13.6-6.94,1.19-11.76,1.97-16.56,2.87-25.24,4.8-50.46,9.74-75.74,14.48-71.35,15.71-169.09,26.05-269.82,2.38-25.69-4.8-50.41-11.79-74.74-19.3-.79.5-1.47,1-2.05,1.52,17.78,54.88,46.03,167.39,29.21,290.83,21.51-1.17,42.21-5.56,62.06-13.16,15.66-6.18,35.32-25.74,58.96-58.7,22.37-30.94,35.81-46.34,40.29-46.23,2.04.03,3.85,1.52,5.4,4.42,29-52.03,59.82-77.67,92.48-76.91,26.55.62,46.58,17.23,60.11,49.82,11.62,27.64,16.95,61.87,16,102.7-.48,20.8-5.63,40.52-15.47,59.08-11.08,19.75-23.57,29.47-37.45,29.16-15.52-.36-38.62-8.46-69.3-24.29-18.37-9.84-34.11-20.11-47.2-30.82l-31.04,61.63,11.55-80.05c-3.57-3.95-6.78-7.92-9.7-11.98-24.6,39.47-41.11,63.58-49.48,72.37-28.04,30.8-70.26,48.84-107.12,50.7v.02c-.47.02-.95.03-1.42.05-.79,3.87-1.62,7.72-2.5,11.57-1.73,7.68-3.59,15.35-5.58,22.98-1.14,4.47-2.59,8.96-2.95,13.52-.16,2.09.12,4.21.52,6.6.24-.05.48-.1.72-.16.66-.14,1.35-.29,2.09-.43,7.7-1.59,19.11-3.82,33.44-6.27,1-.17,2.02-.35,3.06-.52,4.28-.73,8.84-1.47,13.6-2.21.95-.16,1.9-.29,2.85-.45,1.19-.19,2.42-.36,3.64-.55.76-.12,1.52-.22,2.28-.35,7.06-1.05,14.54-2.11,22.39-3.12,2.49-.33,5.01-.66,7.56-.97,5.35-.66,10.86-1.31,16.52-1.95,3.76-.4,7.58-.81,11.46-1.19,2.31-.24,4.64-.47,7.01-.69,1.42-.14,2.85-.28,4.28-.4,4.8-.43,9.67-.85,14.61-1.24,2.87-.22,5.77-.43,8.68-.64,6.39-.45,12.88-.85,19.46-1.19,1.85-.1,3.69-.19,5.54-.28,1.64-.09,3.28-.16,4.92-.22,3.95-.16,7.94-.31,11.96-.43,1.9-.07,3.78-.12,5.7-.16,1.24-.03,2.5-.05,3.76-.09,1.61-.03,3.19-.07,4.8-.09,1.59-.03,3.19-.05,4.8-.07,73.93-.78,154.03,7.18,219.77,34.91,6.49-5.63,3.06-10.74,1.66-15.88-11.69-42.66-18.78-86.17-22.31-130.26-.17-2.11-.88-4.2-1.33-6.27.45-.21.9-.41,1.36-.62l.02-2.52v-.03c-5.63-45.58-7.04-96.06-.1-148.3,0-1.09.03-2.16.09-3.23ZM1083.41,992.67c-7.68-12.22-16.02-18.46-25-18.66-17.14-.41-30.73,3.78-40.73,12.53,17.99,17.16,28.17,26.6,30.59,28.3,13.26,9.7,28.83,15.78,46.75,18.23-.05-14.71-3.94-28.18-11.62-40.4ZM1083.41,992.67c-7.68-12.22-16.02-18.46-25-18.66-17.14-.41-30.73,3.78-40.73,12.53,17.99,17.16,28.17,26.6,30.59,28.3,13.26,9.7,28.83,15.78,46.75,18.23-.05-14.71-3.94-28.18-11.62-40.4ZM1204.48,927.17c.12-2.49.33-4.95.59-7.37.71-6.39,1.8-12.62,2.68-18.84,4.9-33.7,11.48-67.11,22.08-99.6,1.19-3.64,1.12-7.75,1.86-13.6-6.94,1.19-11.76,1.97-16.56,2.87-25.24,4.8-50.46,9.74-75.74,14.48-71.35,15.71-169.09,26.05-269.82,2.38-25.69-4.8-50.41-11.79-74.74-19.3-.79.5-1.47,1-2.05,1.52,17.78,54.88,46.03,167.39,29.21,290.83,21.51-1.17,42.21-5.56,62.06-13.16,15.66-6.18,35.32-25.74,58.96-58.7,22.37-30.94,35.81-46.34,40.29-46.23,2.04.03,3.85,1.52,5.4,4.42,29-52.03,59.82-77.67,92.48-76.91,26.55.62,46.58,17.23,60.11,49.82,11.62,27.64,16.95,61.87,16,102.7-.48,20.8-5.63,40.52-15.47,59.08-11.08,19.75-23.57,29.47-37.45,29.16-15.52-.36-38.62-8.46-69.3-24.29-18.37-9.84-34.11-20.11-47.2-30.82l-31.04,61.63,11.55-80.05c-3.57-3.95-6.78-7.92-9.7-11.98-24.6,39.47-41.11,63.58-49.48,72.37-28.04,30.8-70.26,48.84-107.12,50.7v.02c-.47.02-.95.03-1.42.05-.79,3.87-1.62,7.72-2.5,11.57-1.73,7.68-3.59,15.35-5.58,22.98-1.14,4.47-2.59,8.96-2.95,13.52-.16,2.09.12,4.21.52,6.6.24-.05.48-.1.72-.16.66-.14,1.35-.29,2.09-.43,7.7-1.59,19.11-3.82,33.44-6.27,1-.17,2.02-.35,3.06-.52,4.28-.73,8.84-1.47,13.6-2.21.95-.16,1.9-.29,2.85-.45,1.19-.19,2.42-.36,3.64-.55.76-.12,1.52-.22,2.28-.35,7.06-1.05,14.54-2.11,22.39-3.12,2.49-.33,5.01-.66,7.56-.97,5.35-.66,10.86-1.31,16.52-1.95,3.76-.4,7.58-.81,11.46-1.19,2.31-.24,4.64-.47,7.01-.69,1.42-.14,2.85-.28,4.28-.4,4.8-.43,9.67-.85,14.61-1.24,2.87-.22,5.77-.43,8.68-.64,6.39-.45,12.88-.85,19.46-1.19,1.85-.1,3.69-.19,5.54-.28,1.64-.09,3.28-.16,4.92-.22,3.95-.16,7.94-.31,11.96-.43,1.9-.07,3.78-.12,5.7-.16,1.24-.03,2.5-.05,3.76-.09,1.61-.03,3.19-.07,4.8-.09,1.59-.03,3.19-.05,4.8-.07,73.93-.78,154.03,7.18,219.77,34.91,6.49-5.63,3.06-10.74,1.66-15.88-11.69-42.66-18.78-86.17-22.31-130.26-.17-2.11-.88-4.2-1.33-6.27.45-.21.9-.41,1.36-.62l.02-2.52v-.03c-5.63-45.58-7.04-96.06-.1-148.3,0-1.09.03-2.16.09-3.23ZM1083.41,992.67c-7.68-12.22-16.02-18.46-25-18.66-17.14-.41-30.73,3.78-40.73,12.53,17.99,17.16,28.17,26.6,30.59,28.3,13.26,9.7,28.83,15.78,46.75,18.23-.05-14.71-3.94-28.18-11.62-40.4ZM1083.41,992.67c-7.68-12.22-16.02-18.46-25-18.66-17.14-.41-30.73,3.78-40.73,12.53,17.99,17.16,28.17,26.6,30.59,28.3,13.26,9.7,28.83,15.78,46.75,18.23-.05-14.71-3.94-28.18-11.62-40.4ZM1204.48,927.17c.12-2.49.33-4.95.59-7.37.71-6.39,1.8-12.62,2.68-18.84,4.9-33.7,11.48-67.11,22.08-99.6,1.19-3.64,1.12-7.75,1.86-13.6-6.94,1.19-11.76,1.97-16.56,2.87-25.24,4.8-50.46,9.74-75.74,14.48-71.35,15.71-169.09,26.05-269.82,2.38-25.69-4.8-50.41-11.79-74.74-19.3-.79.5-1.47,1-2.05,1.52,17.78,54.88,46.03,167.39,29.21,290.83,21.51-1.17,42.21-5.56,62.06-13.16,15.66-6.18,35.32-25.74,58.96-58.7,22.37-30.94,35.81-46.34,40.29-46.23,2.04.03,3.85,1.52,5.4,4.42,29-52.03,59.82-77.67,92.48-76.91,26.55.62,46.58,17.23,60.11,49.82,11.62,27.64,16.95,61.87,16,102.7-.48,20.8-5.63,40.52-15.47,59.08-11.08,19.75-23.57,29.47-37.45,29.16-15.52-.36-38.62-8.46-69.3-24.29-18.37-9.84-34.11-20.11-47.2-30.82l-31.04,61.63,11.55-80.05c-3.57-3.95-6.78-7.92-9.7-11.98-24.6,39.47-41.11,63.58-49.48,72.37-28.04,30.8-70.26,48.84-107.12,50.7v.02c-.47.02-.95.03-1.42.05-.79,3.87-1.62,7.72-2.5,11.57-1.73,7.68-3.59,15.35-5.58,22.98-1.14,4.47-2.59,8.96-2.95,13.52-.16,2.09.12,4.21.52,6.6.24-.05.48-.1.72-.16.66-.14,1.35-.29,2.09-.43,7.7-1.59,19.11-3.82,33.44-6.27,1-.17,2.02-.35,3.06-.52,4.28-.73,8.84-1.47,13.6-2.21.95-.16,1.9-.29,2.85-.45,1.19-.19,2.42-.36,3.64-.55.76-.12,1.52-.22,2.28-.35,7.06-1.05,14.54-2.11,22.39-3.12,2.49-.33,5.01-.66,7.56-.97,5.35-.66,10.86-1.31,16.52-1.95,3.76-.4,7.58-.81,11.46-1.19,2.31-.24,4.64-.47,7.01-.69,1.42-.14,2.85-.28,4.28-.4,4.8-.43,9.67-.85,14.61-1.24,2.87-.22,5.77-.43,8.68-.64,6.39-.45,12.88-.85,19.46-1.19,1.85-.1,3.69-.19,5.54-.28,1.64-.09,3.28-.16,4.92-.22,3.95-.16,7.94-.31,11.96-.43,1.9-.07,3.78-.12,5.7-.16,1.24-.03,2.5-.05,3.76-.09,1.61-.03,3.19-.07,4.8-.09,1.59-.03,3.19-.05,4.8-.07,73.93-.78,154.03,7.18,219.77,34.91,6.49-5.63,3.06-10.74,1.66-15.88-11.69-42.66-18.78-86.17-22.31-130.26-.17-2.11-.88-4.2-1.33-6.27.45-.21.9-.41,1.36-.62.1-.05.21-.1.33-.16-.1-.78-.21-1.57-.31-2.37v-.03c-5.63-45.58-7.04-96.06-.1-148.3,0-1.09.03-2.16.09-3.23Z" />
</svg>