<svg width="64" height="64" viewBox="0 0 64 64" fill="none" xmlns="http://www.w3.org/2000/svg">
<path d="M47.79 24.555L48.933 19.409C49.0235 18.9995 49.021 18.575 48.9256 18.1666C48.8303 17.7582 48.6446 17.3764 48.3822 17.0493C48.1197 16.7222 47.7873 16.4581 47.4093 16.2765C47.0313 16.0949 46.6174 16.0004 46.198 16H45.802C45.521 16 45.256 16.054 45 16.131V16C45 14.346 43.654 13 42 13C40.346 13 39 14.346 39 16V16.131C38.7406 16.0481 38.4703 16.0039 38.198 16H37.802C37.3825 16.0004 36.9685 16.095 36.5903 16.2766C36.2122 16.4583 35.8797 16.7224 35.6171 17.0496C35.3546 17.3768 35.1688 17.7587 35.0735 18.1672C34.9781 18.5757 34.9755 19.0004 35.066 19.41L36.209 24.555C33.094 26.439 31 29.85 31 33.75C31 34.663 31.117 35.576 31.348 36.463L36.023 54.382C36.3684 55.7043 37.1424 56.8748 38.2241 57.7103C39.3057 58.5457 40.6338 58.9989 42.0005 58.9989C43.3672 58.9989 44.6953 58.5457 45.7769 57.7103C46.8586 56.8748 47.6326 55.7043 47.978 54.382L52.653 36.462C52.883 35.575 53 34.663 53 33.75C53 29.85 50.906 26.439 47.79 24.555ZM45.802 18H46.198C46.318 18.0003 46.4363 18.0275 46.5444 18.0796C46.6525 18.1317 46.7475 18.2073 46.8225 18.3009C46.8975 18.3945 46.9506 18.5038 46.9779 18.6206C47.0051 18.7374 47.0058 18.8589 46.98 18.976L45.938 23.665C45.6301 23.5519 45.3171 23.4532 45 23.369V18.802C45 18.36 45.359 18 45.802 18ZM41 16C41.0115 15.7425 41.1219 15.4994 41.3082 15.3213C41.4945 15.1431 41.7423 15.0437 42 15.0437C42.2577 15.0437 42.5055 15.1431 42.6918 15.3213C42.8781 15.4994 42.9885 15.7425 43 16V23.038C42.751 23.021 42.504 23 42.251 23H41.749C41.496 23 41.249 23.021 41 23.038V18.802V16ZM37.02 18.978C36.9938 18.8607 36.9943 18.739 37.0214 18.622C37.0485 18.5049 37.1015 18.3954 37.1765 18.3015C37.2516 18.2077 37.3467 18.1318 37.455 18.0797C37.5632 18.0275 37.6818 18.0003 37.802 18H38.198C38.641 18 39 18.36 39 18.802V23.369C38.681 23.454 38.368 23.552 38.061 23.665L37.02 18.978ZM50.717 35.958L46.042 53.877C45.8075 54.7703 45.2836 55.5607 44.5524 56.1247C43.8211 56.6888 42.9235 56.9947 42 56.9947C41.0765 56.9947 40.1789 56.6888 39.4476 56.1247C38.7164 55.5607 38.1925 54.7703 37.958 53.877L33.283 35.959C33.0958 35.2376 33.0007 34.4953 33 33.75C33 28.925 36.925 25 41.749 25H42.251C47.075 25 51 28.925 51 33.75C51 34.493 50.904 35.236 50.717 35.958Z" fill="#51AAB1"/>
<path d="M59 9.101V5H55V1H14C11.243 1 9 3.243 9 6V12.059C4.507 12.559 1 16.376 1 21C1 25.624 4.507 29.442 9 29.941V34.059C4.507 34.559 1 38.376 1 43C1 47.624 4.507 51.442 9 51.941V58C9 60.757 11.243 63 14 63H58C60.757 63 63 60.757 63 58V14C62.9981 12.848 62.5993 11.7319 61.8707 10.8395C61.1422 9.94722 60.1283 9.33323 59 9.101ZM14 3H53V5H15V7H57V9H14C12.346 9 11 7.654 11 6C11 4.346 12.346 3 14 3ZM7 21C7 19.698 7.839 18.598 9 18.184V23.815C8.41677 23.6097 7.91139 23.2289 7.55328 22.7249C7.19517 22.2208 7.0019 21.6183 7 21ZM3 21C3 17.481 5.614 14.568 9 14.08V16.101C7.87167 16.3332 6.85784 16.9472 6.12926 17.8395C5.40068 18.7319 5.00187 19.848 5 21C5 23.757 7.243 26 10 26C11.1521 25.9985 12.2684 25.5998 13.1608 24.8712C14.0532 24.1426 14.6671 23.1285 14.899 22H16.928C16.442 25.388 13.52 28 9.999 28C6.141 28 3 24.86 3 21ZM7 43C7 41.698 7.839 40.598 9 40.184V45.815C8.41677 45.6097 7.91139 45.2289 7.55328 44.7249C7.19517 44.2208 7.0019 43.6183 7 43ZM3 43C3 39.481 5.614 36.568 9 36.08V38.101C7.87167 38.3332 6.85784 38.9472 6.12926 39.8395C5.40068 40.7319 5.00187 41.848 5 43C5 45.757 7.243 48 10 48C11.1521 47.9985 12.2684 47.5998 13.1608 46.8712C14.0532 46.1425 14.6671 45.1285 14.899 44H16.928C16.442 47.388 13.52 50 9.999 50C6.141 50 3 46.86 3 43ZM11 58V51.941C15.493 51.441 19 47.624 19 43V42H13V43C12.998 43.6184 12.8047 44.221 12.4466 44.7252C12.0886 45.2294 11.5832 45.6104 11 45.816V29.941C15.493 29.441 19 25.624 19 21V20H13V21C12.998 21.6184 12.8047 22.221 12.4466 22.7252C12.0886 23.2294 11.5832 23.6104 11 23.816V9.974C11.8604 10.6358 12.9145 10.9963 14 11H21V61H14C12.346 61 11 59.654 11 58ZM61 58C61 59.654 59.654 61 58 61H23V11H58C59.654 11 61 12.346 61 14V58Z" fill="#51AAB1"/>
<path d="M36 31H48V33H36V31ZM36 39H48V41H36V39ZM39 47H45V49H39V47ZM57 57H59V59H57V57ZM25 57H27V59H25V57ZM25 13H27V15H25V13ZM57 13H59V15H57V13Z" fill="#51AAB1"/>
</svg>
