<svg width="53" height="54" viewBox="0 0 53 54" fill="currentColor" xmlns="http://www.w3.org/2000/svg">
<path d="M23.9219 38.1289V27.8594C23.9219 27.6315 23.8313 27.4129 23.6702 27.2517C23.509 27.0905 23.2904 27 23.0625 27C17.8139 27 17.078 36.0055 17.0492 36.3887C17.0365 36.5587 17.0746 36.7288 17.1588 36.8771C17.2429 37.0254 17.3693 37.1454 17.5219 37.2216L18.7656 37.8436V38.1293L18.0996 44.7904C18.0638 45.1488 18.1034 45.5107 18.216 45.8528C18.3286 46.195 18.5117 46.5097 18.7533 46.7768C18.995 47.0438 19.29 47.2573 19.6192 47.4034C19.9484 47.5495 20.3046 47.625 20.6648 47.625H22.0226C22.3828 47.625 22.739 47.5495 23.0683 47.4034C23.3975 47.2573 23.6924 47.0438 23.9341 46.7768C24.1758 46.5097 24.3589 46.195 24.4715 45.8528C24.5841 45.5107 24.6237 45.1488 24.5879 44.7904L23.9219 38.1289ZM18.8246 35.9515C18.9735 34.7464 19.2385 33.5586 19.6157 32.4045C20.2762 30.4611 21.1439 29.2785 22.2031 28.8754V37.3125H20.4844C20.4844 37.1529 20.4399 36.9965 20.356 36.8607C20.2721 36.725 20.1521 36.6153 20.0093 36.5439L18.8246 35.9515ZM22.6595 45.6235C22.5794 45.713 22.4812 45.7844 22.3714 45.8332C22.2616 45.8819 22.1428 45.9068 22.0226 45.9062H20.6648C20.5447 45.9063 20.4259 45.8811 20.3161 45.8324C20.2064 45.7837 20.108 45.7125 20.0274 45.6234C19.9468 45.5343 19.8858 45.4294 19.8483 45.3153C19.8108 45.2011 19.7976 45.0804 19.8096 44.9609L20.4027 39.0312H22.2847L22.8778 44.9609C22.8905 45.0805 22.8776 45.2014 22.84 45.3156C22.8024 45.4298 22.741 45.5348 22.6599 45.6235H22.6595Z"/>
<path d="M51.4219 0.359375H44.5469C44.319 0.359375 44.1004 0.449916 43.9392 0.61108C43.778 0.772244 43.6875 0.99083 43.6875 1.21875V2.07812H25.7461C24.9692 2.07867 24.2048 2.27358 23.5225 2.6451L15.1089 7.23438H5.01562C3.56994 7.23438 2.4375 8.7443 2.4375 10.6719C2.4375 12.471 3.42417 13.9053 4.73106 14.0891L0.856572 27.2053C0.85315 27.217 0.849927 27.2287 0.846904 27.2405C0.761834 27.5813 0.718796 27.9313 0.71875 28.2825V52.7812C0.71875 53.0092 0.809291 53.2278 0.970455 53.3889C1.13162 53.5501 1.3502 53.6406 1.57812 53.6406H40.25C40.4779 53.6406 40.6965 53.5501 40.8577 53.3889C41.0188 53.2278 41.1094 53.0092 41.1094 52.7812V28.3544C41.1095 27.9439 41.0506 27.5356 40.9347 27.1419L37.3541 14.968C38.5202 14.9595 39.6404 14.5131 40.4928 13.7173C41.3452 12.9216 41.8674 11.8346 41.956 10.6719H43.6875V12.3906C43.6875 12.6185 43.778 12.8371 43.9392 12.9983C44.1004 13.1595 44.319 13.25 44.5469 13.25H51.4219C51.6498 13.25 51.8684 13.1595 52.0295 12.9983C52.1907 12.8371 52.2812 12.6185 52.2812 12.3906V1.21875C52.2812 0.99083 52.1907 0.772244 52.0295 0.61108C51.8684 0.449916 51.6498 0.359375 51.4219 0.359375ZM4.15625 10.6719C4.15625 9.62269 4.66521 8.95312 5.01562 8.95312H29.5816L26.1441 12.3906H5.01562C4.66521 12.3906 4.15625 11.7211 4.15625 10.6719ZM30.925 27.2406C30.84 27.5814 30.7969 27.9314 30.7969 28.2826V51.9219H2.4375V28.2825C2.43758 28.0774 2.46207 27.873 2.51044 27.6736L6.51717 14.1094H24.5893C24.1407 14.8673 23.9704 15.758 24.1077 16.628C24.245 17.498 24.6813 18.2929 25.3415 18.8759C26.0017 19.4588 26.8446 19.7934 27.7249 19.8219C28.6052 19.8504 29.4679 19.5711 30.1645 19.0321L34.2988 15.8162L30.9347 27.2054C30.9313 27.2171 30.9281 27.2288 30.925 27.2406ZM35.9531 49.6997L38.1753 51.9219H33.731L35.9531 49.6997ZM39.2859 27.6272C39.3554 27.8634 39.3907 28.1082 39.3906 28.3544V50.7065L36.8125 48.1284V29.5781C36.8125 29.3502 36.722 29.1316 36.5608 28.9705C36.3996 28.8093 36.181 28.7188 35.9531 28.7188C35.7252 28.7188 35.5066 28.8093 35.3455 28.9705C35.1843 29.1316 35.0938 29.3502 35.0938 29.5781V48.1285L32.5156 50.7066V28.2825C32.5157 28.0774 32.5402 27.873 32.5886 27.6736L35.9509 16.2895L39.2859 27.6272ZM43.6875 8.95312H41.6221C41.2583 8.95355 40.9096 9.09825 40.6524 9.35547C40.3951 9.6127 40.2504 9.96145 40.25 10.3252C40.2491 11.1007 39.9407 11.8441 39.3924 12.3924C38.8441 12.9407 38.1007 13.2491 37.3252 13.25H35.2127C34.9446 13.2505 34.6842 13.3398 34.4723 13.5041L29.1091 17.6758C28.6943 17.9987 28.1719 18.1513 27.6485 18.1025C27.1251 18.0537 26.64 17.8071 26.292 17.413C25.9441 17.0189 25.7596 16.507 25.776 15.9815C25.7925 15.4561 26.0087 14.9567 26.3805 14.5851L32.2638 8.70176C32.3841 8.5816 32.4661 8.42845 32.4993 8.2617C32.5325 8.09495 32.5155 7.92208 32.4505 7.76499C32.3855 7.60789 32.2753 7.47362 32.1339 7.37917C31.9925 7.28472 31.8263 7.23433 31.6562 7.23438H18.6984L24.3457 4.15395C24.7754 3.91995 25.2568 3.7972 25.7461 3.79688H43.6875V8.95312ZM50.5625 11.5312H45.4062V2.07812H50.5625V11.5312Z"/>
<path d="M16.1875 27.8594C16.1875 27.6315 16.097 27.4129 15.9358 27.2517C15.7746 27.0905 15.556 27 15.3281 27C15.1002 27 14.8816 27.0905 14.7205 27.2517C14.5593 27.4129 14.4688 27.6315 14.4688 27.8594V30.4375H12.75V27.8594C12.75 27.6315 12.6595 27.4129 12.4983 27.2517C12.3371 27.0905 12.1185 27 11.8906 27C11.6627 27 11.4441 27.0905 11.283 27.2517C11.1218 27.4129 11.0312 27.6315 11.0312 27.8594V30.4375H9.3125V27.8594C9.3125 27.6315 9.22196 27.4129 9.06079 27.2517C8.89963 27.0905 8.68105 27 8.45312 27C8.2252 27 8.00662 27.0905 7.84546 27.2517C7.68429 27.4129 7.59375 27.6315 7.59375 27.8594V31.2969H7.59536C7.59477 31.4302 7.6253 31.5618 7.68452 31.6812L9.29789 34.9081L8.58687 44.8632C8.56164 45.2163 8.60942 45.5709 8.72723 45.9047C8.84503 46.2386 9.03034 46.5446 9.2716 46.8037C9.51286 47.0629 9.8049 47.2695 10.1295 47.4108C10.4542 47.5521 10.8044 47.625 11.1584 47.625H12.6228C12.9769 47.625 13.3271 47.5521 13.6517 47.4108C13.9763 47.2695 14.2684 47.0629 14.5096 46.8037C14.7509 46.5446 14.9362 46.2386 15.054 45.9047C15.1718 45.5709 15.2196 45.2163 15.1944 44.8632L14.4834 34.9081L16.0967 31.6812C16.156 31.5618 16.1865 31.4302 16.1859 31.2969H16.1875V27.8594ZM13.9377 32.1562L13.0783 33.875H10.703L9.84359 32.1562H13.9377ZM13.2519 45.6324C13.1718 45.7192 13.0745 45.7884 12.9662 45.8356C12.8579 45.8827 12.7409 45.9068 12.6228 45.9062H11.1584C11.0404 45.9063 10.9237 45.882 10.8155 45.8349C10.7073 45.7878 10.6099 45.7189 10.5295 45.6325C10.4491 45.5462 10.3873 45.4442 10.348 45.3329C10.3088 45.2216 10.2928 45.1035 10.3012 44.9858L10.9721 35.5938H12.809L13.4798 44.9858C13.4888 45.1035 13.4731 45.2217 13.4339 45.3331C13.3946 45.4444 13.3327 45.5464 13.2519 45.6324Z"/>
</svg>
