<svg width="64" height="64" viewBox="0 0 64 64" fill="none" xmlns="http://www.w3.org/2000/svg">
<g clip-path="url(#clip0_12_130)">
<path fill-rule="evenodd" clip-rule="evenodd" d="M24.4698 37.2442H39.529C40.0243 37.2442 40.425 37.6448 40.425 38.1402V63.104C40.425 63.5994 40.0243 64 39.529 64H24.4698C23.9744 64 23.5738 63.5994 23.5738 63.104V38.1402C23.5738 37.6448 23.9757 37.2442 24.4698 37.2442ZM51.4547 4.96768V4.42496C51.4547 3.9296 51.8554 3.52896 52.3507 3.52896C52.8461 3.52896 53.2467 3.9296 53.2467 4.42496V4.96768C53.6704 5.10848 54.0506 5.34656 54.3603 5.65632C54.8749 6.17088 55.1923 6.88128 55.1923 7.66592C55.1923 8.16128 54.7917 8.56192 54.2963 8.56192C53.801 8.56192 53.4003 8.16128 53.4003 7.66592C53.4003 7.37664 53.2826 7.11424 53.0931 6.92352C52.9037 6.7328 52.6413 6.61632 52.3507 6.61632C52.0615 6.61632 51.7991 6.73408 51.6083 6.92352C51.5108 7.02093 51.4334 7.13666 51.3807 7.26407C51.3279 7.39147 51.3009 7.52804 51.3011 7.66592C51.3011 8.44032 51.9296 8.59008 52.5568 8.73984C53.8739 9.05344 55.1923 9.36704 55.1923 11.5571C55.1923 12.3418 54.8736 13.0522 54.3603 13.5667C54.0475 13.8794 53.6663 14.1152 53.2467 14.2554V14.7981C53.2467 15.2934 52.8461 15.6941 52.3507 15.6941C51.8554 15.6941 51.4547 15.2934 51.4547 14.7981V14.2554C51.0311 14.1146 50.6509 13.8765 50.3411 13.5667C49.8266 13.0522 49.5091 12.3418 49.5091 11.5571C49.5091 11.0618 49.9098 10.6611 50.4051 10.6611C50.9005 10.6611 51.3011 11.0618 51.3011 11.5571C51.3011 11.8464 51.4189 12.1088 51.6083 12.2995C51.8054 12.4961 52.0724 12.6065 52.3507 12.6065C52.6291 12.6065 52.8961 12.4961 53.0931 12.2995C53.191 12.2023 53.2685 12.0866 53.3212 11.9591C53.374 11.8317 53.4009 11.695 53.4003 11.5571C53.4003 10.7827 52.7719 10.633 52.1447 10.4832C50.8275 10.1696 49.5091 9.856 49.5091 7.66592C49.5091 6.88128 49.8266 6.17088 50.3411 5.65632C50.6509 5.34656 51.0311 5.10848 51.4547 4.96768ZM52.3507 0C49.6973 0 47.2947 1.0752 45.5552 2.81472C43.8157 4.55424 42.7405 6.9568 42.7405 9.61024C42.7405 12.2637 43.8157 14.6662 45.5552 16.4058C47.2947 18.1453 49.6973 19.2205 52.3507 19.2205C55.0042 19.2205 57.4067 18.1453 59.1463 16.4058C60.8858 14.6662 61.961 12.2637 61.961 9.61024C61.961 6.9568 60.8858 4.55424 59.1463 2.81472C57.4067 1.0752 55.0042 0 52.3507 0ZM57.8791 4.08192C56.4647 2.66752 54.5101 1.792 52.3507 1.792C50.1914 1.792 48.2368 2.66752 46.8224 4.08192C45.408 5.49632 44.5325 7.45088 44.5325 9.61024C44.5325 11.7696 45.408 13.7242 46.8224 15.1386C48.2368 16.553 50.1914 17.4285 52.3507 17.4285C54.5101 17.4285 56.4647 16.553 57.8791 15.1386C59.2935 13.7242 60.169 11.7696 60.169 9.61024C60.169 7.45088 59.2935 5.49632 57.8791 4.08192ZM31.104 18.3667V17.824C31.104 17.3286 31.5047 16.928 32 16.928C32.4954 16.928 32.896 17.3286 32.896 17.824V18.3667C33.3197 18.5075 33.6999 18.7456 34.0096 19.0554C34.5242 19.5699 34.8416 20.2803 34.8416 21.065C34.8416 21.5603 34.441 21.961 33.9456 21.961C33.4503 21.961 33.0496 21.5603 33.0496 21.065C33.0496 20.7757 32.9319 20.5133 32.7424 20.3226C32.553 20.1318 32.2906 20.0154 32 20.0154C31.7107 20.0154 31.4483 20.1331 31.2576 20.3226C31.16 20.42 31.0827 20.5357 31.0299 20.6631C30.9772 20.7905 30.9502 20.9271 30.9504 21.065C30.9504 21.8394 31.5789 21.9891 32.2061 22.1389C33.5232 22.4525 34.8416 22.7661 34.8416 24.9562C34.8416 25.7408 34.5229 26.4512 34.0096 26.9658C33.6968 27.2785 33.3155 27.5142 32.896 27.6544V28.1971C32.896 28.6925 32.4954 29.0931 32 29.0931C31.5047 29.0931 31.104 28.6925 31.104 28.1971V27.6544C30.6803 27.5136 30.3002 27.2755 29.9904 26.9658C29.4759 26.4512 29.1584 25.7408 29.1584 24.9562C29.1584 24.4608 29.5591 24.0602 30.0544 24.0602C30.5498 24.0602 30.9504 24.4608 30.9504 24.9562C30.9504 25.2454 31.0682 25.5078 31.2576 25.6986C31.4471 25.888 31.7095 26.0058 32 26.0058C32.1379 26.0059 32.2744 25.9788 32.4018 25.9261C32.5292 25.8734 32.6449 25.7961 32.7424 25.6986C32.8399 25.6011 32.9172 25.4853 32.9699 25.3579C33.0226 25.2306 33.0497 25.094 33.0496 24.9562C33.0496 24.1818 32.4211 24.032 31.7939 23.8822C30.4768 23.5686 29.1584 23.255 29.1584 21.065C29.1584 20.2803 29.4759 19.5699 29.9904 19.0554C30.3002 18.7456 30.6803 18.5075 31.104 18.3667ZM32 13.399C29.3466 13.399 26.944 14.4742 25.2045 16.2138C23.465 17.9533 22.3898 20.3558 22.3898 23.0093C22.3898 25.6627 23.465 28.0653 25.2045 29.8048C26.944 31.5443 29.3466 32.6195 32 32.6195C34.6535 32.6195 37.056 31.5443 38.7955 29.8048C40.5351 28.0653 41.6103 25.6627 41.6103 23.0093C41.6103 20.3558 40.5351 17.9533 38.7955 16.2138C37.056 14.4755 34.6535 13.399 32 13.399ZM37.5283 17.481C36.1139 16.0666 34.1594 15.191 32 15.191C29.8407 15.191 27.8861 16.0666 26.4717 17.481C25.0573 18.8954 24.1818 20.8499 24.1818 23.0093C24.1818 25.1686 25.0573 27.1232 26.4717 28.5376C27.8861 29.952 29.8407 30.8275 32 30.8275C34.1594 30.8275 36.1139 29.952 37.5283 28.5376C38.9427 27.1232 39.8183 25.1686 39.8183 23.0093C39.8183 20.8499 38.9427 18.8954 37.5283 17.481ZM10.7533 8.46336V7.92064C10.7533 7.42528 11.1539 7.02464 11.6493 7.02464C12.1447 7.02464 12.5453 7.42528 12.5453 7.92064V8.46336C12.969 8.60416 13.3491 8.84224 13.6589 9.152C14.1735 9.66656 14.4909 10.377 14.4909 11.1616C14.4909 11.657 14.0903 12.0576 13.5949 12.0576C13.0995 12.0576 12.6989 11.657 12.6989 11.1616C12.6989 10.8723 12.5811 10.6099 12.3917 10.4192C12.1946 10.2226 11.9277 10.1122 11.6493 10.1122C11.3709 10.1122 11.104 10.2226 10.9069 10.4192C10.8093 10.5166 10.7319 10.6323 10.6792 10.7597C10.6265 10.8872 10.5995 11.0237 10.5997 11.1616C10.5997 11.936 11.2282 12.0858 11.8554 12.2355C13.1725 12.5491 14.4909 12.8627 14.4909 15.0528C14.4909 15.8374 14.1722 16.5478 13.6589 17.0624C13.346 17.3751 12.9648 17.6108 12.5453 17.751V18.2938C12.5453 18.7891 12.1447 19.1898 11.6493 19.1898C11.1539 19.1898 10.7533 18.7891 10.7533 18.2938V17.751C10.3296 17.6102 9.94946 17.3722 9.6397 17.0624C9.12514 16.5478 8.8077 15.8374 8.8077 15.0528C8.8077 14.5574 9.20834 14.1568 9.7037 14.1568C10.1991 14.1568 10.5997 14.5574 10.5997 15.0528C10.5997 15.3421 10.7175 15.6045 10.9069 15.7952C11.104 15.9918 11.3709 16.1022 11.6493 16.1022C11.9277 16.1022 12.1946 15.9918 12.3917 15.7952C12.4893 15.6978 12.5667 15.5821 12.6194 15.4547C12.6721 15.3273 12.6991 15.1907 12.6989 15.0528C12.6989 14.2784 12.0704 14.1286 11.4432 13.9789C10.1261 13.6653 8.8077 13.3517 8.8077 11.1616C8.8077 10.377 9.12514 9.66656 9.6397 9.152C9.94946 8.84224 10.3283 8.60416 10.7533 8.46336ZM11.6493 3.49568C8.99586 3.49568 6.5933 4.57088 4.85378 6.3104C3.11426 8.04992 2.03906 10.4525 2.03906 13.1059C2.03906 15.7594 3.11426 18.1619 4.85378 19.9014C6.5933 21.641 8.99586 22.7162 11.6493 22.7162C14.3027 22.7162 16.7053 21.641 18.4448 19.9014C20.1843 18.1619 21.2595 15.7594 21.2595 13.1059C21.2595 10.4525 20.1843 8.04992 18.4448 6.3104C16.7053 4.57088 14.3027 3.49568 11.6493 3.49568ZM17.1776 7.5776C15.7632 6.1632 13.8087 5.28768 11.6493 5.28768C9.48994 5.28768 7.53538 6.16192 6.12098 7.5776C4.70658 8.99328 3.83106 10.9466 3.83106 13.1059C3.83106 15.2653 4.70658 17.2198 6.12098 18.6342C7.53538 20.0486 9.48994 20.9242 11.6493 20.9242C13.8087 20.9242 15.7632 20.0486 17.1776 18.6342C18.592 17.2198 19.4675 15.2653 19.4675 13.1059C19.4663 10.9466 18.592 8.992 17.1776 7.5776ZM4.11906 27.1539H19.1783C19.6736 27.1539 20.0743 27.5546 20.0743 28.0499V63.104C20.0743 63.5994 19.6736 64 19.1783 64H4.11906C3.6237 64 3.22306 63.5994 3.22306 63.104V28.0499C3.22306 27.5546 3.62498 27.1539 4.11906 27.1539ZM18.2835 28.9459H5.01506V62.208H18.2823V28.9459H18.2835ZM59.881 64H44.8205C44.3251 64 43.9245 63.5994 43.9245 63.104V25.6576C43.9245 25.1622 44.3251 24.7616 44.8205 24.7616H59.8797C60.3751 24.7616 60.7757 25.1622 60.7757 25.6576V63.104C60.777 63.5994 60.3751 64 59.881 64ZM45.7165 62.208H58.9837V26.5536H45.7165V62.208ZM38.6343 39.0362H25.3658V62.208H38.633V39.0362H38.6343Z" fill="#51AAB1"/>
</g>
<defs>
<clipPath id="clip0_12_130">
<rect width="64" height="64" fill="white"/>
</clipPath>
</defs>
</svg>
